<svg width="427" height="397" viewBox="0 0 427 397" fill="none" xmlns="http://www.w3.org/2000/svg">
<rect width="427" height="397" rx="70" fill="#040D21"/>
<rect x="114" y="34" width="246" height="38" rx="19" fill="#061129"/>
<line x1="296.25" y1="39.25" x2="296.25" y2="66.75" stroke="#203F82" stroke-width="0.5" stroke-linecap="round"/>
<path d="M337.76 55.6823L338.791 53.8608L344 58L343 59.5L337.76 55.6823Z" fill="#3E65CA"/>
<circle cx="334" cy="51" r="6" fill="#3E65CA"/>
<circle cx="334" cy="51" r="4" fill="#061129"/>
<rect x="38" y="104" width="171" height="29" rx="14.5" fill="#09193C"/>
<rect x="38" y="275" width="171" height="29" rx="14.5" fill="#061129"/>
<rect x="38" y="193" width="171" height="28" rx="14" fill="#061330"/>
<rect x="46" y="144" width="302" height="10" rx="5" fill="#09193E"/>
<rect x="46" y="319" width="302" height="9" rx="4.5" fill="#051027"/>
<rect x="46" y="230" width="302" height="10" rx="5" fill="#06122D"/>
<rect x="46" y="165" width="191" height="9" rx="4.5" fill="#081739"/>
<rect x="46" y="248" width="191" height="10" rx="5" fill="#051029"/>
<rect x="46" y="339" width="191" height="10" rx="5" fill="#050F24"/>
<path d="M39.56 51.1C39.2 50.4067 38.7 49.8867 38.06 49.54C37.42 49.18 36.68 49 35.84 49C34.92 49 34.1 49.2067 33.38 49.62C32.66 50.0333 32.0933 50.62 31.68 51.38C31.28 52.14 31.08 53.02 31.08 54.02C31.08 55.02 31.28 55.9067 31.68 56.68C32.0933 57.44 32.66 58.0267 33.38 58.44C34.1 58.8533 34.92 59.06 35.84 59.06C37.08 59.06 38.0867 58.7133 38.86 58.02C39.6333 57.3267 40.1067 56.3867 40.28 55.2H35.06V53.38H42.72V55.16C42.5733 56.24 42.1867 57.2333 41.56 58.14C40.9467 59.0467 40.14 59.7733 39.14 60.32C38.1533 60.8533 37.0533 61.12 35.84 61.12C34.5333 61.12 33.34 60.82 32.26 60.22C31.18 59.6067 30.32 58.76 29.68 57.68C29.0533 56.6 28.74 55.38 28.74 54.02C28.74 52.66 29.0533 51.44 29.68 50.36C30.32 49.28 31.18 48.44 32.26 47.84C33.3533 47.2267 34.5467 46.92 35.84 46.92C37.32 46.92 38.6333 47.2867 39.78 48.02C40.94 48.74 41.78 49.7667 42.3 51.1H39.56ZM49.7488 61.18C48.7088 61.18 47.7688 60.9467 46.9288 60.48C46.0888 60 45.4288 59.3333 44.9488 58.48C44.4688 57.6133 44.2288 56.6133 44.2288 55.48C44.2288 54.36 44.4754 53.3667 44.9688 52.5C45.4621 51.6333 46.1354 50.9667 46.9888 50.5C47.8421 50.0333 48.7954 49.8 49.8488 49.8C50.9021 49.8 51.8554 50.0333 52.7088 50.5C53.5621 50.9667 54.2354 51.6333 54.7288 52.5C55.2221 53.3667 55.4688 54.36 55.4688 55.48C55.4688 56.6 55.2154 57.5933 54.7088 58.46C54.2021 59.3267 53.5088 60 52.6288 60.48C51.7621 60.9467 50.8021 61.18 49.7488 61.18ZM49.7488 59.2C50.3354 59.2 50.8821 59.06 51.3888 58.78C51.9088 58.5 52.3288 58.08 52.6488 57.52C52.9688 56.96 53.1288 56.28 53.1288 55.48C53.1288 54.68 52.9754 54.0067 52.6688 53.46C52.3621 52.9 51.9554 52.48 51.4488 52.2C50.9421 51.92 50.3954 51.78 49.8088 51.78C49.2221 51.78 48.6754 51.92 48.1688 52.2C47.6754 52.48 47.2821 52.9 46.9888 53.46C46.6954 54.0067 46.5488 54.68 46.5488 55.48C46.5488 56.6667 46.8488 57.5867 47.4488 58.24C48.0621 58.88 48.8288 59.2 49.7488 59.2ZM62.5027 61.18C61.4627 61.18 60.5227 60.9467 59.6827 60.48C58.8427 60 58.1827 59.3333 57.7027 58.48C57.2227 57.6133 56.9827 56.6133 56.9827 55.48C56.9827 54.36 57.2293 53.3667 57.7227 52.5C58.216 51.6333 58.8893 50.9667 59.7427 50.5C60.596 50.0333 61.5493 49.8 62.6027 49.8C63.656 49.8 64.6093 50.0333 65.4627 50.5C66.316 50.9667 66.9893 51.6333 67.4827 52.5C67.976 53.3667 68.2227 54.36 68.2227 55.48C68.2227 56.6 67.9693 57.5933 67.4627 58.46C66.956 59.3267 66.2627 60 65.3827 60.48C64.516 60.9467 63.556 61.18 62.5027 61.18ZM62.5027 59.2C63.0893 59.2 63.636 59.06 64.1427 58.78C64.6627 58.5 65.0827 58.08 65.4027 57.52C65.7227 56.96 65.8827 56.28 65.8827 55.48C65.8827 54.68 65.7293 54.0067 65.4227 53.46C65.116 52.9 64.7093 52.48 64.2027 52.2C63.696 51.92 63.1493 51.78 62.5627 51.78C61.976 51.78 61.4293 51.92 60.9227 52.2C60.4293 52.48 60.036 52.9 59.7427 53.46C59.4493 54.0067 59.3027 54.68 59.3027 55.48C59.3027 56.6667 59.6027 57.5867 60.2027 58.24C60.816 58.88 61.5827 59.2 62.5027 59.2ZM74.9166 49.8C75.7699 49.8 76.5232 49.9733 77.1766 50.32C77.8432 50.6533 78.3632 51.0733 78.7366 51.58V49.98H81.0366V61.18C81.0366 62.1933 80.8232 63.0933 80.3966 63.88C79.9699 64.68 79.3499 65.3067 78.5366 65.76C77.7366 66.2133 76.7766 66.44 75.6566 66.44C74.1632 66.44 72.9232 66.0867 71.9366 65.38C70.9499 64.6867 70.3899 63.74 70.2566 62.54H72.5166C72.6899 63.1133 73.0566 63.5733 73.6166 63.92C74.1899 64.28 74.8699 64.46 75.6566 64.46C76.5766 64.46 77.3166 64.18 77.8766 63.62C78.4499 63.06 78.7366 62.2467 78.7366 61.18V59.34C78.3499 59.86 77.8232 60.3 77.1566 60.66C76.5032 61.0067 75.7566 61.18 74.9166 61.18C73.9566 61.18 73.0766 60.94 72.2766 60.46C71.4899 59.9667 70.8632 59.2867 70.3966 58.42C69.9432 57.54 69.7166 56.5467 69.7166 55.44C69.7166 54.3333 69.9432 53.3533 70.3966 52.5C70.8632 51.6467 71.4899 50.9867 72.2766 50.52C73.0766 50.04 73.9566 49.8 74.9166 49.8ZM78.7366 55.48C78.7366 54.72 78.5766 54.06 78.2566 53.5C77.9499 52.94 77.5432 52.5133 77.0366 52.22C76.5299 51.9267 75.9832 51.78 75.3966 51.78C74.8099 51.78 74.2632 51.9267 73.7566 52.22C73.2499 52.5 72.8366 52.92 72.5166 53.48C72.2099 54.0267 72.0566 54.68 72.0566 55.44C72.0566 56.2 72.2099 56.8667 72.5166 57.44C72.8366 58.0133 73.2499 58.4533 73.7566 58.76C74.2766 59.0533 74.8232 59.2 75.3966 59.2C75.9832 59.2 76.5299 59.0533 77.0366 58.76C77.5432 58.4667 77.9499 58.04 78.2566 57.48C78.5766 56.9067 78.7366 56.24 78.7366 55.48ZM86.3113 46.2V61H84.0313V46.2H86.3113ZM99.4047 55.22C99.4047 55.6333 99.378 56.0067 99.3247 56.34H90.9047C90.9714 57.22 91.298 57.9267 91.8847 58.46C92.4714 58.9933 93.1914 59.26 94.0447 59.26C95.2714 59.26 96.138 58.7467 96.6447 57.72H99.1047C98.7714 58.7333 98.1647 59.5667 97.2847 60.22C96.418 60.86 95.338 61.18 94.0447 61.18C92.9914 61.18 92.0447 60.9467 91.2047 60.48C90.378 60 89.7247 59.3333 89.2447 58.48C88.778 57.6133 88.5447 56.6133 88.5447 55.48C88.5447 54.3467 88.7714 53.3533 89.2247 52.5C89.6914 51.6333 90.338 50.9667 91.1647 50.5C92.0047 50.0333 92.9647 49.8 94.0447 49.8C95.0847 49.8 96.0114 50.0267 96.8247 50.48C97.638 50.9333 98.2714 51.5733 98.7247 52.4C99.178 53.2133 99.4047 54.1533 99.4047 55.22ZM97.0247 54.5C97.0114 53.66 96.7114 52.9867 96.1247 52.48C95.538 51.9733 94.8114 51.72 93.9447 51.72C93.158 51.72 92.4847 51.9733 91.9247 52.48C91.3647 52.9733 91.0314 53.6467 90.9247 54.5H97.0247Z" fill="white"/>
<rect x="308" y="43" width="6" height="12" rx="3" fill="#4285F4"/>
<rect x="310" y="57" width="2" height="5" fill="#34A853"/>
<path d="M305 53C307.704 56.0185 311.433 60.2444 316.5 53" stroke="url(#paint0_linear_52_7)" stroke-width="2"/>
<defs>
<linearGradient id="paint0_linear_52_7" x1="308" y1="56" x2="307.5" y2="55.5" gradientUnits="userSpaceOnUse">
<stop stop-color="#EA4335"/>
<stop offset="1" stop-color="#FBBC05"/>
</linearGradient>
</defs>
</svg>
