<svg width="45" height="31" viewBox="0 0 45 31" fill="none" xmlns="http://www.w3.org/2000/svg">
<path d="M18.1167 23.3373L32.1872 4.27621C32.653 3.64518 33.5146 3.45759 34.2006 3.83784C34.8181 4.18009 35.1209 4.88668 34.9652 5.55642L34.8962 5.77775L26.1929 27.8143C25.2484 30.2058 22.5441 31.3788 20.1526 30.4343C19.9648 30.3602 19.7821 30.2739 19.6056 30.176C17.3562 28.9292 16.5434 26.0948 17.7903 23.8453L17.9453 23.586L18.1167 23.3373L32.1872 4.27621L18.1167 23.3373ZM37.3675 5.331C39.0644 6.70576 40.6001 8.33742 41.9151 10.2155C43.0947 11.9 44.2304 13.9397 44.8836 15.609C45.223 16.4765 44.795 17.4548 43.9275 17.7943C43.06 18.1337 42.0817 17.7057 41.7422 16.8382C41.5234 16.279 41.2315 15.6548 40.8938 15.0125L36.2847 17.6736C35.478 18.1393 34.4465 17.8629 33.9807 17.0562C33.5538 16.3167 33.7505 15.3883 34.4076 14.88L34.5981 14.7522L39.1369 12.1281L38.6187 11.4226C37.8903 10.4723 37.0935 9.60231 36.24 8.81464L37.0949 6.64612C37.1801 6.43038 37.245 6.21115 37.2902 5.99067L37.3435 5.6593L37.3675 5.331ZM31.4562 1.81996C31.121 2.01463 30.8121 2.26219 30.5419 2.559L30.285 2.87208L29.0685 4.52035C27.4903 3.97177 25.8514 3.61683 24.1908 3.46239L24.1903 9.47324C24.1903 10.4047 23.4351 11.1599 22.5036 11.1599C21.6497 11.1599 20.9441 10.5254 20.8324 9.7021L20.817 9.47324L20.8161 3.42544C17.2254 3.68076 13.6555 4.88188 10.4922 7.09684C8.65729 8.38169 7.05742 10.0704 5.72751 12.0549L10.4101 14.7582C11.2168 15.224 11.4932 16.2555 11.0275 17.0622C10.6005 17.8017 9.69818 18.0956 8.92938 17.7807L8.72347 17.6796L4.05891 14.9877C3.77158 15.5864 3.50477 16.2027 3.25917 16.8346C2.9217 17.7029 1.94429 18.1331 1.07606 17.7957C0.207832 17.4582 -0.222438 16.4808 0.115027 15.6126C1.92862 10.9466 4.79105 6.97084 8.55741 4.33361C15.5107 -0.535104 24.1518 -1.19521 31.4562 1.81996Z" fill="url(#paint0_linear_171_4)"/>
<defs>
<linearGradient id="paint0_linear_171_4" x1="-28.1807" y1="15.3805" x2="61.2624" y2="15.3805" gradientUnits="userSpaceOnUse">
<stop stop-color="#00FF57" stop-opacity="0.85"/>
<stop offset="1" stop-color="#311FFF"/>
</linearGradient>
</defs>
</svg>
