<svg width="427" height="397" viewBox="0 0 427 397" fill="none" xmlns="http://www.w3.org/2000/svg">
<rect width="427" height="397" rx="58" fill="#202124"/>
<path d="M358 26H150C139.507 26 131 34.5066 131 45C131 55.4934 139.507 64 150 64H358C368.493 64 377 55.4934 377 45C377 34.5066 368.493 26 358 26Z" fill="#303134"/>
<path d="M313.5 31V59" stroke="#9F9F9F"/>
<path d="M353.583 47.7015L354.914 46.0868L359.326 51.0676L358.08 52.3711L353.583 47.7015Z" fill="#8AB4F8"/>
<path d="M351 49C354.314 49 357 46.3137 357 43C357 39.6863 354.314 37 351 37C347.686 37 345 39.6863 345 43C345 46.3137 347.686 49 351 49Z" fill="#8AB4F8"/>
<path d="M351 47C353.209 47 355 45.2091 355 43C355 40.7909 353.209 39 351 39C348.791 39 347 40.7909 347 43C347 45.2091 348.791 47 351 47Z" fill="#303134"/>
<path d="M211.5 96H69.5C61.4919 96 55 102.492 55 110.5C55 118.508 61.4919 125 69.5 125H211.5C219.508 125 226 118.508 226 110.5C226 102.492 219.508 96 211.5 96Z" fill="#868686"/>
<path d="M211.5 267H69.5C61.4919 267 55 273.492 55 281.5C55 289.508 61.4919 296 69.5 296H211.5C219.508 296 226 289.508 226 281.5C226 273.492 219.508 267 211.5 267Z" fill="#313131"/>
<path d="M212 185H69C61.268 185 55 191.268 55 199C55 206.732 61.268 213 69 213H212C219.732 213 226 206.732 226 199C226 191.268 219.732 185 212 185Z" fill="#464646"/>
<path d="M360 136H68C65.2386 136 63 138.239 63 141C63 143.761 65.2386 146 68 146H360C362.761 146 365 143.761 365 141C365 138.239 362.761 136 360 136Z" fill="#606060"/>
<path d="M360.5 311H67.5C65.0147 311 63 313.015 63 315.5C63 317.985 65.0147 320 67.5 320H360.5C362.985 320 365 317.985 365 315.5C365 313.015 362.985 311 360.5 311Z" fill="#292929"/>
<path d="M360 222H68C65.2386 222 63 224.239 63 227C63 229.761 65.2386 232 68 232H360C362.761 232 365 229.761 365 227C365 224.239 362.761 222 360 222Z" fill="#313131"/>
<path d="M249.5 157H67.5C65.0147 157 63 159.015 63 161.5C63 163.985 65.0147 166 67.5 166H249.5C251.985 166 254 163.985 254 161.5C254 159.015 251.985 157 249.5 157Z" fill="#464646"/>
<path d="M249 240H68C65.2386 240 63 242.239 63 245C63 247.761 65.2386 250 68 250H249C251.761 250 254 247.761 254 245C254 242.239 251.761 240 249 240Z" fill="#292929"/>
<path d="M249 331H68C65.2386 331 63 333.239 63 336C63 338.761 65.2386 341 68 341H249C251.761 341 254 338.761 254 336C254 333.239 251.761 331 249 331Z" fill="#262626"/>
<path d="M56.56 43.1C56.2 42.4067 55.7 41.8867 55.06 41.54C54.42 41.18 53.68 41 52.84 41C51.92 41 51.1 41.2067 50.38 41.62C49.66 42.0333 49.0933 42.62 48.68 43.38C48.28 44.14 48.08 45.02 48.08 46.02C48.08 47.02 48.28 47.9067 48.68 48.68C49.0933 49.44 49.66 50.0267 50.38 50.44C51.1 50.8533 51.92 51.06 52.84 51.06C54.08 51.06 55.0867 50.7133 55.86 50.02C56.6333 49.3267 57.1067 48.3867 57.28 47.2H52.06V45.38H59.72V47.16C59.5733 48.24 59.1867 49.2333 58.56 50.14C57.9467 51.0467 57.14 51.7733 56.14 52.32C55.1533 52.8533 54.0533 53.12 52.84 53.12C51.5333 53.12 50.34 52.82 49.26 52.22C48.18 51.6067 47.32 50.76 46.68 49.68C46.0533 48.6 45.74 47.38 45.74 46.02C45.74 44.66 46.0533 43.44 46.68 42.36C47.32 41.28 48.18 40.44 49.26 39.84C50.3533 39.2267 51.5467 38.92 52.84 38.92C54.32 38.92 55.6333 39.2867 56.78 40.02C57.94 40.74 58.78 41.7667 59.3 43.1H56.56ZM66.7488 53.18C65.7088 53.18 64.7688 52.9467 63.9288 52.48C63.0888 52 62.4288 51.3333 61.9488 50.48C61.4688 49.6133 61.2288 48.6133 61.2288 47.48C61.2288 46.36 61.4754 45.3667 61.9688 44.5C62.4621 43.6333 63.1354 42.9667 63.9888 42.5C64.8421 42.0333 65.7954 41.8 66.8488 41.8C67.9021 41.8 68.8554 42.0333 69.7088 42.5C70.5621 42.9667 71.2354 43.6333 71.7288 44.5C72.2221 45.3667 72.4688 46.36 72.4688 47.48C72.4688 48.6 72.2154 49.5933 71.7088 50.46C71.2021 51.3267 70.5088 52 69.6288 52.48C68.7621 52.9467 67.8021 53.18 66.7488 53.18ZM66.7488 51.2C67.3354 51.2 67.8821 51.06 68.3888 50.78C68.9088 50.5 69.3288 50.08 69.6488 49.52C69.9688 48.96 70.1288 48.28 70.1288 47.48C70.1288 46.68 69.9754 46.0067 69.6688 45.46C69.3621 44.9 68.9554 44.48 68.4488 44.2C67.9421 43.92 67.3954 43.78 66.8088 43.78C66.2221 43.78 65.6754 43.92 65.1688 44.2C64.6754 44.48 64.2821 44.9 63.9888 45.46C63.6954 46.0067 63.5488 46.68 63.5488 47.48C63.5488 48.6667 63.8488 49.5867 64.4488 50.24C65.0621 50.88 65.8288 51.2 66.7488 51.2ZM79.5027 53.18C78.4627 53.18 77.5227 52.9467 76.6827 52.48C75.8427 52 75.1827 51.3333 74.7027 50.48C74.2227 49.6133 73.9827 48.6133 73.9827 47.48C73.9827 46.36 74.2293 45.3667 74.7227 44.5C75.216 43.6333 75.8893 42.9667 76.7427 42.5C77.596 42.0333 78.5493 41.8 79.6027 41.8C80.656 41.8 81.6093 42.0333 82.4627 42.5C83.316 42.9667 83.9893 43.6333 84.4827 44.5C84.976 45.3667 85.2227 46.36 85.2227 47.48C85.2227 48.6 84.9693 49.5933 84.4627 50.46C83.956 51.3267 83.2627 52 82.3827 52.48C81.516 52.9467 80.556 53.18 79.5027 53.18ZM79.5027 51.2C80.0893 51.2 80.636 51.06 81.1427 50.78C81.6627 50.5 82.0827 50.08 82.4027 49.52C82.7227 48.96 82.8827 48.28 82.8827 47.48C82.8827 46.68 82.7293 46.0067 82.4227 45.46C82.116 44.9 81.7093 44.48 81.2027 44.2C80.696 43.92 80.1493 43.78 79.5627 43.78C78.976 43.78 78.4293 43.92 77.9227 44.2C77.4293 44.48 77.036 44.9 76.7427 45.46C76.4493 46.0067 76.3027 46.68 76.3027 47.48C76.3027 48.6667 76.6027 49.5867 77.2027 50.24C77.816 50.88 78.5827 51.2 79.5027 51.2ZM91.9166 41.8C92.7699 41.8 93.5232 41.9733 94.1766 42.32C94.8432 42.6533 95.3632 43.0733 95.7366 43.58V41.98H98.0366V53.18C98.0366 54.1933 97.8232 55.0933 97.3966 55.88C96.9699 56.68 96.3499 57.3067 95.5366 57.76C94.7366 58.2133 93.7766 58.44 92.6566 58.44C91.1632 58.44 89.9232 58.0867 88.9366 57.38C87.9499 56.6867 87.3899 55.74 87.2566 54.54H89.5166C89.6899 55.1133 90.0566 55.5733 90.6166 55.92C91.1899 56.28 91.8699 56.46 92.6566 56.46C93.5766 56.46 94.3166 56.18 94.8766 55.62C95.4499 55.06 95.7366 54.2467 95.7366 53.18V51.34C95.3499 51.86 94.8232 52.3 94.1566 52.66C93.5032 53.0067 92.7566 53.18 91.9166 53.18C90.9566 53.18 90.0766 52.94 89.2766 52.46C88.4899 51.9667 87.8632 51.2867 87.3966 50.42C86.9432 49.54 86.7166 48.5467 86.7166 47.44C86.7166 46.3333 86.9432 45.3533 87.3966 44.5C87.8632 43.6467 88.4899 42.9867 89.2766 42.52C90.0766 42.04 90.9566 41.8 91.9166 41.8ZM95.7366 47.48C95.7366 46.72 95.5766 46.06 95.2566 45.5C94.9499 44.94 94.5432 44.5133 94.0366 44.22C93.5299 43.9267 92.9832 43.78 92.3966 43.78C91.8099 43.78 91.2632 43.9267 90.7566 44.22C90.2499 44.5 89.8366 44.92 89.5166 45.48C89.2099 46.0267 89.0566 46.68 89.0566 47.44C89.0566 48.2 89.2099 48.8667 89.5166 49.44C89.8366 50.0133 90.2499 50.4533 90.7566 50.76C91.2766 51.0533 91.8232 51.2 92.3966 51.2C92.9832 51.2 93.5299 51.0533 94.0366 50.76C94.5432 50.4667 94.9499 50.04 95.2566 49.48C95.5766 48.9067 95.7366 48.24 95.7366 47.48ZM103.311 38.2V53H101.031V38.2H103.311ZM116.405 47.22C116.405 47.6333 116.378 48.0067 116.325 48.34H107.905C107.971 49.22 108.298 49.9267 108.885 50.46C109.471 50.9933 110.191 51.26 111.045 51.26C112.271 51.26 113.138 50.7467 113.645 49.72H116.105C115.771 50.7333 115.165 51.5667 114.285 52.22C113.418 52.86 112.338 53.18 111.045 53.18C109.991 53.18 109.045 52.9467 108.205 52.48C107.378 52 106.725 51.3333 106.245 50.48C105.778 49.6133 105.545 48.6133 105.545 47.48C105.545 46.3467 105.771 45.3533 106.225 44.5C106.691 43.6333 107.338 42.9667 108.165 42.5C109.005 42.0333 109.965 41.8 111.045 41.8C112.085 41.8 113.011 42.0267 113.825 42.48C114.638 42.9333 115.271 43.5733 115.725 44.4C116.178 45.2133 116.405 46.1533 116.405 47.22ZM114.025 46.5C114.011 45.66 113.711 44.9867 113.125 44.48C112.538 43.9733 111.811 43.72 110.945 43.72C110.158 43.72 109.485 43.9733 108.925 44.48C108.365 44.9733 108.031 45.6467 107.925 46.5H114.025Z" fill="white"/>
<path d="M331 38C331 36.3431 329.657 35 328 35C326.343 35 325 36.3431 325 38V44C325 45.6569 326.343 47 328 47C329.657 47 331 45.6569 331 44V38Z" fill="#4285F4"/>
<path d="M329 49H327V54H329V49Z" fill="#34A853"/>
<path d="M322 45C324.704 48.0185 328.433 52.2444 333.5 45" stroke="url(#paint0_linear_57_42)" stroke-width="2"/>
<defs>
<linearGradient id="paint0_linear_57_42" x1="325" y1="48" x2="324.5" y2="47.5" gradientUnits="userSpaceOnUse">
<stop stop-color="#EA4335"/>
<stop offset="1" stop-color="#FBBC05"/>
</linearGradient>
</defs>
</svg>
