<svg width="452" height="397" viewBox="0 0 452 397" fill="none" xmlns="http://www.w3.org/2000/svg">
<rect width="452" height="397" rx="71" fill="#040D21"/>
<path d="M217.771 221.782L217.408 219.815L217.771 221.782ZM382.936 77.4987C382.659 76.4294 381.568 75.787 380.499 76.0638L363.073 80.5757C362.004 80.8525 361.362 81.9438 361.638 83.0131C361.915 84.0824 363.007 84.7248 364.076 84.448L379.565 80.4375L383.576 95.9267C383.853 96.996 384.944 97.6384 386.013 97.3615C387.082 97.0847 387.725 95.9934 387.448 94.9241L382.936 77.4987ZM71.9833 333.258C74.5732 313.322 89.1133 290.004 114.159 269.574C139.156 249.185 174.445 231.827 218.135 223.749L217.408 219.815C173.098 228.008 137.18 245.635 111.631 266.475C86.1309 287.275 70.7853 311.431 68.0167 332.742L71.9833 333.258ZM218.135 223.749C311.293 206.524 352.929 129.629 382.724 79.0146L379.276 76.9854C349.303 127.903 308.5 202.973 217.408 219.815L218.135 223.749Z" fill="url(#paint0_linear_73_31)"/>
<line x1="62" y1="59" x2="62" y2="339" stroke="#0B1A38" stroke-width="4" stroke-linecap="round"/>
<line x1="62" y1="339" x2="381" y2="339" stroke="#0B1A38" stroke-width="4" stroke-linecap="round"/>
<defs>
<linearGradient id="paint0_linear_73_31" x1="362.5" y1="116" x2="172.138" y2="313.195" gradientUnits="userSpaceOnUse">
<stop stop-color="#1FEC96"/>
<stop offset="1" stop-color="#00D1FF"/>
</linearGradient>
</defs>
</svg>
