<svg  viewBox="0 0 50 50" fill="none" xmlns="http://www.w3.org/2000/svg">
<path d="M27.5507 8.56239L29.4792 6.66295C33.2665 2.93294 39.4321 2.84062 43.2412 6.54913C44.6844 7.95748 45.6436 9.77574 45.9839 11.7485C46.3241 13.7213 46.0283 15.7495 45.138 17.5481C44.711 18.4074 44.5671 19.3765 44.7263 20.3201C44.8858 21.2638 45.3404 22.1349 46.0268 22.8117C47.289 21.5657 48.2894 20.087 48.9711 18.46C49.6528 16.8331 50.0025 15.0898 50 13.3297C49.9973 11.5697 49.6429 9.82737 48.9565 8.20233C48.2701 6.57727 47.2652 5.10134 45.9995 3.85885C40.6733 -1.35734 32.0278 -1.25353 26.7164 3.97731L8.33382 22.0817L6.8226 20.5933C2.97114 16.8 2.94659 10.5996 6.86599 6.87372C8.31678 5.49884 10.1651 4.60131 12.1559 4.30505C14.1467 4.00879 16.1817 4.3284 17.9802 5.21974C18.8011 5.63405 19.7339 5.78225 20.6454 5.6432C21.5569 5.50416 22.4005 5.08497 23.0557 4.44551L23.1026 4.39959C23.1171 4.38533 23.1287 4.36836 23.1366 4.34965C23.1445 4.33096 23.1486 4.31091 23.1486 4.29066C23.1486 4.27042 23.1445 4.25036 23.1366 4.23168C23.1287 4.213 23.1171 4.19602 23.1026 4.18173C20.5724 1.75245 17.182 0.387931 13.6485 0.376898C10.1151 0.365869 6.71584 1.70919 4.17015 4.12263C-1.31355 9.33638 -1.29395 18.0063 4.09575 23.3146L22.4729 41.4141L20.5208 43.3367C16.7336 47.0667 10.5677 47.1591 6.75886 43.4506C5.31557 42.0423 4.35644 40.2239 4.01617 38.2512C3.67594 36.2785 3.97164 34.2504 4.86178 32.4515C5.28883 31.5923 5.43276 30.6232 5.27348 29.6797C5.11418 28.736 4.6596 27.8648 3.97325 27.188C2.71108 28.4341 1.71055 29.9127 1.02881 31.5396C0.347067 33.1667 -0.00251954 34.9098 1.36691e-05 36.67C0.00254688 38.43 0.35715 40.1724 1.04358 41.7973C1.73 43.4225 2.73479 44.8984 4.00053 46.1408C9.3265 51.3573 17.9722 51.2537 23.2836 46.0226L41.69 27.8941L43.2069 29.3881C46.9942 33.1181 47.0879 39.1906 43.3225 42.9418C41.8926 44.3635 40.0464 45.308 38.0434 45.6433C36.0404 45.9784 33.9812 45.687 32.1547 44.8102C31.2821 44.3894 30.2976 44.2475 29.3391 44.4048C28.3807 44.5618 27.4959 45.01 26.8087 45.6866C28.0739 46.9297 29.5752 47.9152 31.227 48.5866C32.8791 49.2581 34.649 49.6024 36.4362 49.6C38.2232 49.5973 39.9923 49.248 41.6422 48.572C43.2922 47.8959 44.7908 46.9063 46.0523 45.6597C51.3488 40.4142 51.2434 31.8991 45.9323 26.6682L27.5507 8.56239ZM25.2171 38.7101L11.0788 24.7854L24.8055 11.2663L38.9438 25.1911L25.2171 38.7101Z" fill="#00BCE3"/>
</svg>
