<svg width="202" height="205" viewBox="0 0 202 205" fill="none" xmlns="http://www.w3.org/2000/svg">
<path d="M111.098 35.0576L118.875 27.2806C134.147 12.0085 159.01 11.6306 174.37 26.8146C180.19 32.5809 184.058 40.0255 185.43 48.1027C186.802 56.18 185.609 64.484 182.019 71.8485C180.297 75.3665 179.717 79.3345 180.359 83.1982C181.002 87.0619 182.835 90.6284 185.603 93.3996C190.693 88.298 194.727 82.2435 197.476 75.5822C200.225 68.9208 201.635 61.7831 201.625 54.5768C201.614 47.3706 200.185 40.2369 197.417 33.5834C194.649 26.9298 190.597 20.8868 185.493 15.7996C164.015 -5.55743 129.152 -5.13243 107.734 16.2845L33.6061 90.4106L27.5121 84.3166C11.9811 68.7856 11.8821 43.3986 27.6871 28.1436C33.5374 22.5143 40.9908 18.8394 49.0186 17.6264C57.0464 16.4134 65.2527 17.722 72.5051 21.3715C75.8153 23.0678 79.5769 23.6747 83.2526 23.1054C86.9283 22.5361 90.3301 20.8197 92.9721 18.2015L93.1611 18.0135C93.2199 17.9551 93.2665 17.8856 93.2984 17.809C93.3302 17.7325 93.3466 17.6505 93.3466 17.5676C93.3466 17.4847 93.3302 17.4025 93.2984 17.326C93.2665 17.2495 93.2199 17.18 93.1611 17.1215C82.9584 7.17518 69.2863 1.58833 55.0376 1.54316C40.789 1.498 27.0816 6.99806 16.8161 16.8796C-5.29688 38.2266 -5.21786 73.7246 16.5161 95.4585L90.6221 169.565L82.7501 177.437C67.4781 192.709 42.6141 193.087 27.2551 177.903C21.435 172.137 17.5673 164.692 16.1952 156.615C14.8232 148.538 16.0156 140.234 19.6051 132.869C21.3272 129.351 21.9076 125.383 21.2653 121.52C20.6229 117.656 18.7898 114.089 16.0221 111.318C10.9324 116.42 6.8978 122.474 4.14868 129.135C1.39955 135.797 -0.01016 142.934 5.51208e-05 150.141C0.0102703 157.347 1.44021 164.481 4.20822 171.134C6.97622 177.788 11.028 183.831 16.1321 188.918C37.6091 210.276 72.4731 209.852 93.8911 188.434L168.115 114.209L174.232 120.326C189.504 135.598 189.882 160.461 174.698 175.82C168.932 181.641 161.487 185.508 153.41 186.881C145.333 188.253 137.029 187.06 129.664 183.47C126.145 181.747 122.175 181.166 118.31 181.81C114.445 182.453 110.877 184.288 108.106 187.058C113.208 192.148 119.262 196.183 125.923 198.932C132.585 201.681 139.722 203.091 146.929 203.081C154.135 203.07 161.269 201.64 167.922 198.872C174.576 196.104 180.619 192.052 185.706 186.948C207.064 165.471 206.639 130.607 185.222 109.19L111.098 35.0576ZM101.688 158.494L44.6751 101.481L100.028 46.1286L157.041 103.142L101.688 158.494Z" fill="#63C0BD"/>
</svg>
