<svg width="707" height="875" viewBox="0 0 707 875" fill="none" xmlns="http://www.w3.org/2000/svg">
<path d="M96.7321 75.9771L114.047 29.5079C148.05 -61.7455 249.707 -111.015 341.663 -78.9317C376.53 -66.7224 406.534 -43.9594 427.457 -13.8388C448.38 16.2822 459.171 52.2477 458.316 89.0051C457.878 106.578 462.993 123.782 472.943 138.217C482.896 152.651 497.188 163.595 513.825 169.518C525.136 139.057 530.296 106.759 529.019 74.4684C527.741 42.1769 520.049 10.5248 506.381 -18.6792C492.709 -47.8808 473.336 -74.0659 449.357 -95.7327C425.378 -117.4 397.267 -134.126 366.632 -144.956C237.812 -190.326 95.0698 -121.666 47.3817 6.30729L-117.664 449.23L-154.28 436.217C-247.596 403.055 -296.01 300.295 -259.781 208.088C-246.338 174.027 -222.598 144.814 -191.838 124.482C-161.078 104.15 -124.814 93.7005 -88.0519 94.5755C-71.2147 95.0988 -54.5791 90.3373 -40.5212 80.9714C-26.4633 71.6054 -15.7021 58.114 -9.77479 42.424L-9.35211 41.2988C-9.22044 40.9491 -9.16 40.5778 -9.1735 40.2059C-9.18723 39.8346 -9.27492 39.4702 -9.43168 39.134C-9.58844 38.7978 -9.81125 38.4964 -10.0868 38.2472C-10.3628 37.9982 -10.6861 37.8059 -11.0389 37.6815C-71.8562 16.9359 -138.715 20.5303 -197.468 47.7045C-256.221 74.8785 -302.26 123.501 -325.842 183.282C-376.524 312.305 -309.073 456.106 -178.486 502.513L266.774 660.746L249.247 707.783C215.245 799.036 113.584 848.308 21.6313 816.223C-13.2359 804.015 -43.2393 781.25 -64.1622 751.13C-85.0848 721.01 -95.8779 685.046 -95.0254 648.288C-94.5873 630.715 -99.7009 613.51 -109.65 599.078C-119.602 584.642 -133.895 573.696 -150.531 567.773C-161.839 598.235 -167.004 630.532 -165.727 662.822C-164.449 695.116 -156.757 726.765 -143.087 755.971C-129.419 785.173 -110.041 811.358 -86.0628 833.023C-62.0832 854.692 -33.9729 871.418 -3.33771 882.247C125.48 927.623 268.228 858.965 315.914 730.988L481.169 287.48L517.922 300.541C609.683 333.15 658.254 433.249 624.779 524.687C612.045 559.363 588.703 589.339 558.043 610.414C527.381 631.486 490.934 642.591 453.82 642.174C436.073 641.943 418.628 647.209 403.932 657.242C389.234 667.27 378.013 681.562 371.842 698.115C402.474 708.96 435.031 713.7 467.656 712.058C500.284 710.415 532.337 702.43 561.992 688.552C591.641 674.672 618.311 655.176 640.47 631.177C662.633 607.177 679.853 579.143 691.146 548.678C738.474 420.577 670.797 280.012 542.115 234.281L96.7321 75.9771ZM291.402 594.604L-51.1555 472.868L72.0872 142.127L414.645 263.863L291.402 594.604Z" fill="#00D3FF" fill-opacity="0.07"/>
</svg>
