<svg width="427" height="405" viewBox="0 0 427 405" fill="none" xmlns="http://www.w3.org/2000/svg">
<rect width="427" height="405" rx="80" fill="#040D21"/>
<path d="M225.5 76.9999C123.526 74.5131 46.7906 201.685 129.705 295.059C130.413 295.857 131.647 295.967 132.47 295.288L157.937 274.288C158.797 273.579 158.918 272.314 158.194 271.467L158.071 271.324C146.136 257.368 119.164 225.829 138.5 174.5C160.5 116.1 215.667 110.5 240.5 115C259.167 117.666 300 134.6 314 181C327.369 225.308 303.806 260.985 288.593 275.141C287.585 276.079 287.739 277.732 288.925 278.433L318.035 295.634C318.879 296.134 319.987 295.917 320.609 295.157C410.654 185.074 306.67 71.5223 225.5 76.9999Z" stroke="#1786B6" stroke-width="3"/>
<path d="M239.736 179.7L241.436 180.872L334.571 249.623C342.105 255.185 335.591 266.94 326.881 263.5L218.675 220.764C206.765 216.06 200.923 202.592 205.628 190.681C205.996 189.747 206.427 188.838 206.913 187.957C213.054 176.878 226.926 172.794 238.071 178.705L239.736 179.7Z" fill="#121C34"/>
</svg>
