<svg width="193" height="74" viewBox="0 0 193 74" fill="none" xmlns="http://www.w3.org/2000/svg">
<path d="M14.765 52.32L15.7489 52.1411L15.5996 51.32H14.765V52.32ZM18.221 58.848L17.5702 59.6073L17.5847 59.6197L17.5996 59.6315L18.221 58.848ZM34.253 56.16L35.1296 56.6413L35.1335 56.6341L34.253 56.16ZM36.941 39.456H37.941V36.3513L36.129 38.8724L36.941 39.456ZM30.701 44.256L30.3071 43.3368L30.299 43.3404L30.701 44.256ZM11.021 43.488L10.5531 44.3718L10.5634 44.3772L10.5738 44.3824L11.021 43.488ZM3.245 35.904L2.37471 36.3966L2.37881 36.4037L3.245 35.904ZM6.701 6.72L7.40271 7.4325L7.40811 7.4271L6.701 6.72ZM43.181 9.12L42.3377 9.65749L42.3419 9.66401L43.181 9.12ZM46.637 55.872L45.6733 55.6049L45.6704 55.6158L46.637 55.872ZM39.245 67.968L38.6291 67.1802L38.6221 67.1857L39.245 67.968ZM12.941 69.408L12.4539 70.2814L12.4604 70.285L12.4669 70.2885L12.941 69.408ZM5.261 62.208L4.3939 62.7061L4.40021 62.7171L4.4068 62.7279L5.261 62.208ZM2.285 52.32V51.32H1.21102L1.28754 52.3912L2.285 52.32ZM32.621 14.976L31.8922 15.6607L31.9029 15.6721L31.9139 15.6831L32.621 14.976ZM16.205 15.072L15.4768 14.3866L15.4762 14.3873L16.205 15.072ZM16.109 31.872L15.3592 32.5336L15.3695 32.5453L15.3802 32.5567L16.109 31.872ZM13.7811 52.4989C14.3252 55.4911 15.569 57.8919 17.5702 59.6073L18.8718 58.0887C17.289 56.7321 16.2288 54.7809 15.7489 52.1411L13.7811 52.4989ZM17.5996 59.6315C19.6789 61.2806 22.383 62.056 25.613 62.056V60.056C22.699 60.056 20.4751 59.3594 18.8424 58.0645L17.5996 59.6315ZM25.613 62.056C27.7355 62.056 29.6244 61.6187 31.242 60.702C32.863 59.7835 34.1557 58.4151 35.1296 56.6413L33.3764 55.6787C32.5583 57.1689 31.515 58.2485 30.256 58.962C28.9936 59.6773 27.4585 60.056 25.613 60.056V62.056ZM35.1335 56.6341C37.051 53.073 37.941 47.2886 37.941 39.456H35.941C35.941 47.2394 35.039 52.591 33.3725 55.6859L35.1335 56.6341ZM36.129 38.8724C34.7792 40.7503 32.8549 42.2449 30.3071 43.3369L31.0949 45.1751C33.9231 43.9631 36.1588 42.2577 37.753 40.0396L36.129 38.8724ZM30.299 43.3404C27.8107 44.4328 25.1007 44.984 22.157 44.984V46.984C25.3573 46.984 28.3433 46.3832 31.103 45.1716L30.299 43.3404ZM22.157 44.984C18.2004 44.984 14.6438 44.1814 11.4682 42.5936L10.5738 44.3824C14.0542 46.1226 17.9216 46.984 22.157 46.984V44.984ZM11.4889 42.6042C8.39804 40.9679 5.94117 38.5762 4.11119 35.4043L2.37881 36.4037C4.38883 39.8877 7.11596 42.5521 10.5531 44.3718L11.4889 42.6042ZM4.11526 35.4114C2.29789 32.2007 1.365 28.283 1.365 23.616H-0.634999C-0.634999 28.549 0.352109 32.8233 2.37474 36.3966L4.11526 35.4114ZM1.365 23.616C1.365 16.7229 3.40665 11.368 7.40269 7.43248L5.99931 6.00751C1.54735 10.392 -0.634999 16.3011 -0.634999 23.616H1.365ZM7.40811 7.4271C11.4046 3.43063 16.8877 1.384 23.981 1.384V-0.616005C16.4823 -0.616005 10.4454 1.56136 5.99389 6.01289L7.40811 7.4271ZM23.981 1.384C32.8485 1.384 38.8662 4.21073 42.3377 9.65747L44.0243 8.58252C40.0718 2.38126 33.2895 -0.616005 23.981 -0.616005V1.384ZM42.3419 9.66401C45.9631 15.2492 47.845 23.7868 47.845 35.424H49.845C49.845 23.6372 47.9509 14.6388 44.0201 8.57598L42.3419 9.66401ZM47.845 35.424C47.845 43.6946 47.1123 50.4121 45.6733 55.605L47.6007 56.139C49.1057 50.7079 49.845 43.7933 49.845 35.424H47.845ZM45.6704 55.6158C44.3051 60.7666 41.941 64.5909 38.6291 67.1802L39.8609 68.7558C43.589 65.8411 46.1529 61.6014 47.6036 56.1282L45.6704 55.6158ZM38.6221 67.1857C35.3976 69.7533 30.908 71.096 25.037 71.096V73.096C31.198 73.096 36.1804 71.6867 39.8679 68.7503L38.6221 67.1857ZM25.037 71.096C20.4254 71.096 16.5651 70.2237 13.4151 68.5275L12.4669 70.2885C15.9729 72.1763 20.1766 73.096 25.037 73.096V71.096ZM13.4281 68.5346C10.2346 66.7537 7.80816 64.4693 6.1152 61.688L4.4068 62.7279C6.29784 65.8347 8.9914 68.3503 12.4539 70.2814L13.4281 68.5346ZM6.12811 61.7099C4.47788 58.8373 3.52812 55.688 3.28246 52.2487L1.28754 52.3912C1.55388 56.12 2.58812 59.5627 4.3939 62.7061L6.12811 61.7099ZM2.285 53.32H14.765V51.32H2.285V53.32ZM24.941 36.04C28.4897 36.04 31.3985 34.9389 33.5425 32.6519L32.0835 31.2841C30.3875 33.0931 28.0483 34.04 24.941 34.04V36.04ZM33.5425 32.6519C35.6744 30.378 36.693 27.3603 36.693 23.712H34.693C34.693 26.9757 33.7916 29.462 32.0835 31.2841L33.5425 32.6519ZM36.693 23.712C36.693 19.7547 35.6156 16.5564 33.3281 14.2689L31.9139 15.6831C33.7224 17.4916 34.693 20.1173 34.693 23.712H36.693ZM33.3498 14.2913C31.1407 11.9397 28.1355 10.808 24.461 10.808V12.808C27.6986 12.808 30.1333 13.7883 31.8922 15.6607L33.3498 14.2913ZM24.461 10.808C20.7765 10.808 17.7439 11.9779 15.4768 14.3866L16.9332 15.7574C18.7621 13.8141 21.2335 12.808 24.461 12.808V10.808ZM15.4762 14.3873C13.2821 16.7229 12.229 19.8033 12.229 23.52H14.229C14.229 20.1967 15.1599 17.6451 16.9338 15.7567L15.4762 14.3873ZM12.229 23.52C12.229 27.1121 13.2513 30.1447 15.3592 32.5336L16.8588 31.2104C15.1267 29.2473 14.229 26.7119 14.229 23.52H12.229ZM15.3802 32.5567C17.612 34.9325 20.8606 36.04 24.941 36.04V34.04C21.2134 34.04 18.574 33.0355 16.8378 31.1873L15.3802 32.5567ZM65.2588 10.08L64.4175 9.53922L64.4137 9.54535L65.2588 10.08ZM105.099 10.08L104.254 10.6147L104.258 10.6208L105.099 10.08ZM105.099 62.304L104.255 61.7671L104.251 61.7732L105.099 62.304ZM65.2588 62.304L64.4112 62.8348L64.4151 62.8409L65.2588 62.304ZM96.9388 24.192L95.954 24.3658L95.9559 24.377L95.9582 24.3881L96.9388 24.192ZM93.2907 16.224L92.5382 16.8825L92.5439 16.8891L92.5498 16.8955L93.2907 16.224ZM77.0667 16.224L76.3258 15.5525L76.3199 15.5589L76.3142 15.5655L77.0667 16.224ZM73.4187 24.192L72.4374 23.9996L72.4359 24.0072L72.4346 24.0148L73.4187 24.192ZM73.4187 48.384L72.4334 48.5545L72.434 48.5578L73.4187 48.384ZM77.0667 56.352L76.3258 57.0235L76.3311 57.0294L76.3365 57.0352L77.0667 56.352ZM93.3867 56.352L94.117 57.0352L94.1224 57.0294L94.1277 57.0235L93.3867 56.352ZM97.0348 48.384L98.0195 48.5578L98.0201 48.5545L97.0348 48.384ZM60.3067 36.096C60.3067 25.1262 62.2752 16.6663 66.1038 10.6146L64.4137 9.54535C60.3063 16.0377 58.3067 24.9218 58.3067 36.096H60.3067ZM66.0999 10.6208C69.9018 4.70673 76.1919 1.672 85.2268 1.672V-0.328003C75.7016 -0.328003 68.6797 2.90926 64.4176 9.53924L66.0999 10.6208ZM85.2268 1.672C94.2622 1.672 100.516 4.70665 104.254 10.6146L105.944 9.54535C101.746 2.90934 94.7513 -0.328003 85.2268 -0.328003V1.672ZM104.258 10.6208C108.147 16.6711 110.147 25.1285 110.147 36.096H112.147C112.147 24.9195 110.114 16.0329 105.94 9.53924L104.258 10.6208ZM110.147 36.096C110.147 47.128 108.147 55.6514 104.255 61.7671L105.942 62.8409C110.115 56.2846 112.147 47.336 112.147 36.096H110.147ZM104.251 61.7732C100.512 67.7446 94.2579 70.808 85.2268 70.808V72.808C94.7557 72.808 101.75 69.5354 105.946 62.8348L104.251 61.7732ZM85.2268 70.808C76.1962 70.808 69.9062 67.7445 66.1024 61.7671L64.4151 62.8409C68.6753 69.5356 75.6973 72.808 85.2268 72.808V70.808ZM66.1063 61.7732C62.2754 55.6561 60.3067 47.1302 60.3067 36.096H58.3067C58.3067 47.3338 60.3061 56.2799 64.4112 62.8348L66.1063 61.7732ZM98.8988 36.096C98.8988 31.3208 98.5766 27.2822 97.9193 23.9959L95.9582 24.3881C96.5809 27.5018 96.8988 31.3992 96.8988 36.096H98.8988ZM97.9235 24.0182C97.3214 20.6059 96.0375 17.7657 94.0317 15.5525L92.5498 16.8955C94.256 18.7783 95.4041 21.25 95.954 24.3658L97.9235 24.0182ZM94.0433 15.5655C92.0058 13.2369 89.0022 12.152 85.2268 12.152V14.152C88.6193 14.152 90.9917 15.1151 92.5382 16.8825L94.0433 15.5655ZM85.2268 12.152C81.4492 12.152 78.4237 13.2375 76.3258 15.5525L77.8077 16.8955C79.4218 15.1145 81.8363 14.152 85.2268 14.152V12.152ZM76.3142 15.5655C74.383 17.7725 73.1038 20.601 72.4374 23.9996L74.4001 24.3844C75.0137 21.255 76.1665 18.7715 77.8193 16.8825L76.3142 15.5655ZM72.4346 24.0148C71.8445 27.2931 71.5547 31.3249 71.5547 36.096H73.5547C73.5547 31.3951 73.841 27.4909 74.4029 24.3692L72.4346 24.0148ZM71.5547 36.096C71.5547 40.9946 71.8444 45.1516 72.4334 48.5545L74.4041 48.2135C73.8411 44.9604 73.5547 40.9254 73.5547 36.096H71.5547ZM72.434 48.5578C73.0361 51.97 74.32 54.8103 76.3258 57.0235L77.8077 55.6805C76.1015 53.7977 74.9534 51.326 74.4035 48.2102L72.434 48.5578ZM76.3365 57.0352C78.4367 59.2802 81.4586 60.328 85.2268 60.328V58.328C81.8269 58.328 79.4088 57.3918 77.797 55.6688L76.3365 57.0352ZM85.2268 60.328C88.9949 60.328 92.0168 59.2802 94.117 57.0352L92.6565 55.6688C91.0447 57.3918 88.6266 58.328 85.2268 58.328V60.328ZM94.1277 57.0235C96.1335 54.8103 97.4174 51.97 98.0195 48.5578L96.05 48.2102C95.5001 51.326 94.352 53.7977 92.6458 55.6805L94.1277 57.0235ZM98.0201 48.5545C98.6091 45.1516 98.8988 40.9946 98.8988 36.096H96.8988C96.8988 40.9254 96.6124 44.9604 96.0494 48.2135L98.0201 48.5545ZM124.057 7.776L123.366 7.05296L123.358 7.06081L124.057 7.776ZM146.041 7.776L145.342 8.49123L145.35 8.49899L146.041 7.776ZM146.041 30.72L145.35 29.997L145.342 30.0048L146.041 30.72ZM124.057 30.72L123.358 31.4352L123.366 31.443L124.057 30.72ZM181.465 4.8L182.337 5.28955L183.174 3.8H181.465V4.8ZM143.737 72V73H144.323L144.609 72.4895L143.737 72ZM130.681 72L129.809 71.5114L128.975 73H130.681V72ZM168.313 4.8V3.8H167.727L167.441 4.31139L168.313 4.8ZM139.033 24.96L139.818 25.5796L139.826 25.5699L139.833 25.56L139.033 24.96ZM166.201 46.08L166.892 46.8034L166.892 46.803L166.201 46.08ZM188.089 46.08L187.382 46.7871L187.39 46.7953L187.399 46.8034L188.089 46.08ZM188.089 69.024L187.39 68.3088L187.382 68.3169L188.089 69.024ZM166.201 69.024L166.9 68.3088L166.201 69.024ZM120.833 19.2C120.833 14.5378 122.176 11.0126 124.756 8.49118L123.358 7.06081C120.306 10.0434 118.833 14.1342 118.833 19.2H120.833ZM124.748 8.49899C127.418 5.94744 130.84 4.648 135.097 4.648V2.648C130.395 2.648 126.456 4.10056 123.366 7.05301L124.748 8.49899ZM135.097 4.648C139.355 4.648 142.739 5.94734 145.342 8.49118L146.74 7.06081C143.711 4.10065 139.799 2.648 135.097 2.648V4.648ZM145.35 8.49899C147.991 11.0218 149.361 14.5444 149.361 19.2H151.361C151.361 14.1276 149.852 10.0342 146.732 7.05301L145.35 8.49899ZM149.361 19.2C149.361 23.924 147.988 27.4766 145.35 29.997L146.732 31.443C149.855 28.4594 151.361 24.332 151.361 19.2H149.361ZM145.342 30.0048C142.739 32.5487 139.355 33.848 135.097 33.848V35.848C139.799 35.848 143.711 34.3953 146.74 31.4352L145.342 30.0048ZM135.097 33.848C130.84 33.848 127.418 32.5486 124.748 29.997L123.366 31.443C126.456 34.3954 130.395 35.848 135.097 35.848V33.848ZM124.756 30.0048C122.179 27.4858 120.833 23.9306 120.833 19.2H118.833C118.833 24.3254 120.304 28.4502 123.358 31.4352L124.756 30.0048ZM180.593 4.31044L142.865 71.5105L144.609 72.4895L182.337 5.28955L180.593 4.31044ZM143.737 71H130.681V73H143.737V71ZM131.554 72.4886L169.186 5.2886L167.441 4.31139L129.809 71.5114L131.554 72.4886ZM168.313 5.8H181.465V3.8H168.313V5.8ZM135.001 10.712C132.973 10.712 131.322 11.4506 130.224 13.0077C129.171 14.5009 128.721 16.617 128.721 19.2H130.721C130.721 16.791 131.151 15.163 131.859 14.1603C132.521 13.2214 133.509 12.712 135.001 12.712V10.712ZM128.721 19.2C128.721 21.8132 129.171 23.9511 130.221 25.4594C131.316 27.0334 132.968 27.784 135.001 27.784V25.784C133.514 25.784 132.526 25.2706 131.862 24.3166C131.152 23.2969 130.721 21.6427 130.721 19.2H128.721ZM135.001 27.784C136.995 27.784 138.645 27.0657 139.818 25.5796L138.248 24.3404C137.502 25.2863 136.463 25.784 135.001 25.784V27.784ZM139.833 25.56C140.98 24.0306 141.473 21.8562 141.473 19.2H139.473C139.473 21.6638 139.006 23.3294 138.233 24.36L139.833 25.56ZM141.473 19.2C141.473 16.6118 141.006 14.4897 139.913 12.994C138.777 11.4398 137.079 10.712 135.001 10.712V12.712C136.571 12.712 137.61 13.2322 138.298 14.174C139.029 15.1743 139.473 16.7962 139.473 19.2H141.473ZM162.977 57.504C162.977 52.7723 164.323 49.2554 166.892 46.8034L165.511 45.3566C162.448 48.2806 160.977 52.3797 160.977 57.504H162.977ZM166.892 46.803C169.562 44.2514 172.984 42.952 177.241 42.952V40.952C172.539 40.952 168.6 42.4046 165.51 45.357L166.892 46.803ZM177.241 42.952C181.499 42.952 184.846 44.2513 187.382 46.7871L188.796 45.3729C185.828 42.4047 181.943 40.952 177.241 40.952V42.952ZM187.399 46.8034C189.968 49.2554 191.313 52.7723 191.313 57.504H193.313C193.313 52.3797 191.843 48.2806 188.78 45.3566L187.399 46.8034ZM191.313 57.504C191.313 62.2346 189.968 65.7898 187.39 68.3088L188.788 69.7392C191.843 66.7542 193.313 62.6294 193.313 57.504H191.313ZM187.382 68.3169C184.846 70.8527 181.499 72.152 177.241 72.152V74.152C181.943 74.152 185.828 72.6993 188.796 69.7311L187.382 68.3169ZM177.241 72.152C172.915 72.152 169.5 70.85 166.9 68.3088L165.502 69.7392C168.534 72.702 172.479 74.152 177.241 74.152V72.152ZM166.9 68.3088C164.323 65.7898 162.977 62.2346 162.977 57.504H160.977C160.977 62.6294 162.448 66.7542 165.502 69.7392L166.9 68.3088ZM177.145 49.016C175.067 49.016 173.37 49.7438 172.234 51.298C171.141 52.7937 170.673 54.9158 170.673 57.504H172.673C172.673 55.1002 173.118 53.4783 173.849 52.478C174.537 51.5362 175.575 51.016 177.145 51.016V49.016ZM170.673 57.504C170.673 60.1223 171.14 62.2662 172.23 63.7771C173.364 65.3484 175.062 66.088 177.145 66.088V64.088C175.58 64.088 174.542 63.5636 173.852 62.6069C173.118 61.5898 172.673 59.9417 172.673 57.504H170.673ZM177.145 66.088C179.203 66.088 180.878 65.3431 181.993 63.7703C183.063 62.2607 183.521 60.1198 183.521 57.504H181.521C181.521 59.9442 181.083 61.5953 180.361 62.6137C179.684 63.5689 178.671 64.088 177.145 64.088V66.088ZM183.521 57.504C183.521 54.9184 183.063 52.7993 181.99 51.3048C180.873 49.749 179.198 49.016 177.145 49.016V51.016C178.676 51.016 179.69 51.531 180.365 52.4712C181.084 53.4727 181.521 55.0976 181.521 57.504H183.521Z" fill="url(#paint0_linear_76_77)"/>
<defs>
<linearGradient id="paint0_linear_76_77" x1="-132.5" y1="38" x2="269" y2="38" gradientUnits="userSpaceOnUse">
<stop stop-color="#00FF57" stop-opacity="0.85"/>
<stop offset="1" stop-color="#311FFF"/>
</linearGradient>
</defs>
</svg>
