
<svg width="452" height="397" viewBox="0 0 452 397" fill="none" xmlns="http://www.w3.org/2000/svg">
<rect width="452" height="397" rx="71" fill="#040D21"/>
<rect x="186" y="76" width="161" height="85" rx="5" fill="#0B1A38"/>
<rect x="105" y="76" width="66" height="85" rx="5" fill="#0B1A38"/>
<rect x="105" y="176" width="155" height="85" rx="5" fill="#0B1A38"/>
<rect x="105" y="276" width="69" height="46" rx="5" fill="#0B1A38"/>
<rect x="189" y="275" width="161" height="46" rx="5" fill="#0B1A38"/>
<rect x="275" y="175" width="73" height="85" rx="5" fill="#0B1A38"/>
<path d="M339.844 151L329.306 122.912L301.219 112.375L329.306 101.838L339.844 73.75L350.381 101.838L378.469 112.375L350.381 122.912L339.844 151Z" fill="#FBBC05"/>
<path d="M315.703 83.4062L310.962 70.4447L298 65.7031L310.962 60.9615L315.703 48L320.445 60.9615L333.406 65.7031L320.445 70.4447L315.703 83.4062Z" fill="#FBBC05"/>
<path d="M378.469 99.5L372.21 83.2272L355.938 76.9688L372.21 70.7103L378.469 54.4375L384.727 70.7103L401 76.9688L384.727 83.2272L378.469 99.5Z" fill="#FBBC05"/>
</svg>
