<svg width="461" height="92" viewBox="0 0 461 92" fill="none" xmlns="http://www.w3.org/2000/svg">
<path id="Web Designer" d="M64.128 25.328L65.0911 25.5971L65.4457 24.328H64.128V25.328ZM51.648 70V71H52.4069L52.6111 70.2691L51.648 70ZM41.088 70L40.121 70.2549L40.3174 71H41.088V70ZM32.704 38.192L33.671 37.9371L32.7256 34.3505L31.74 37.9263L32.704 38.192ZM23.936 70L23.9421 71L24.6989 70.9954L24.9 70.2657L23.936 70ZM13.44 70.064L12.4743 70.3237L12.6747 71.0687L13.4461 71.064L13.44 70.064ZM1.408 25.328V24.328H0.103507L0.442318 25.5877L1.408 25.328ZM11.008 25.328L11.9832 25.1067L11.8065 24.328H11.008V25.328ZM18.88 60.016L17.9048 60.2373L19.8474 60.2694L18.88 60.016ZM27.968 25.328V24.328H27.1962L27.0006 25.0746L27.968 25.328ZM37.952 25.328L38.9225 25.0867L38.7338 24.328H37.952V25.328ZM46.528 59.824L45.5575 60.0653L47.5025 60.0482L46.528 59.824ZM54.464 25.328V24.328H53.6679L53.4895 25.1038L54.464 25.328ZM63.1649 25.0589L50.6849 69.7309L52.6111 70.2691L65.0911 25.5971L63.1649 25.0589ZM51.648 69H41.088V71H51.648V69ZM42.055 69.7451L33.671 37.9371L31.737 38.4469L40.121 70.2549L42.055 69.7451ZM31.74 37.9263L22.972 69.7343L24.9 70.2657L33.668 38.4577L31.74 37.9263ZM23.9299 69L13.4339 69.064L13.4461 71.064L23.9421 71L23.9299 69ZM14.4057 69.8043L2.37368 25.0683L0.442318 25.5877L12.4743 70.3237L14.4057 69.8043ZM1.408 26.328H11.008V24.328H1.408V26.328ZM10.0328 25.5493L17.9048 60.2373L19.8552 59.7947L11.9832 25.1067L10.0328 25.5493ZM19.8474 60.2694L28.9354 25.5814L27.0006 25.0746L17.9126 59.7626L19.8474 60.2694ZM27.968 26.328H37.952V24.328H27.968V26.328ZM36.9815 25.5693L45.5575 60.0653L47.4985 59.5827L38.9225 25.0867L36.9815 25.5693ZM47.5025 60.0482L55.4385 25.5522L53.4895 25.1038L45.5535 59.5998L47.5025 60.0482ZM54.464 26.328H64.128V24.328H54.464V26.328ZM102.683 54.96V55.96H103.53L103.669 55.1244L102.683 54.96ZM76.7625 54.96V53.96H75.6757L75.766 55.043L76.7625 54.96ZM79.4505 60.976L78.7739 61.7123L78.7739 61.7123L79.4505 60.976ZM92.3785 58.864V57.864H91.7563L91.4814 58.4221L92.3785 58.864ZM102.043 58.864L103 59.1513L103.387 57.864H102.043V58.864ZM96.1545 67.312L96.7545 68.112L96.762 68.1064L96.1545 67.312ZM76.2505 68.336L75.7544 69.2042L75.7625 69.2089L75.7707 69.2134L76.2505 68.336ZM69.9145 61.872L69.034 62.3461L69.0397 62.3565L69.9145 61.872ZM69.9145 42.608L69.034 42.1339L69.034 42.1339L69.9145 42.608ZM76.1865 36.208L76.6721 37.0822L76.6721 37.0822L76.1865 36.208ZM94.4905 36.144L94.0097 37.0208L94.0156 37.024L94.4905 36.144ZM100.699 42.352L99.8185 42.8269L99.823 42.8353L99.8277 42.8436L100.699 42.352ZM93.6585 48.944V49.944H94.6772L94.6583 48.9255L93.6585 48.944ZM91.1625 43.44L90.5068 44.195L90.5126 44.2L90.5184 44.2049L91.1625 43.44ZM79.5785 43.376L80.2415 44.1246L80.2429 44.1234L79.5785 43.376ZM76.8265 48.944L75.8366 48.8026L75.6735 49.944H76.8265V48.944ZM101.939 51.504C101.939 52.7411 101.856 53.8367 101.696 54.7956L103.669 55.1244C103.85 54.0353 103.939 52.8269 103.939 51.504H101.939ZM102.683 53.96H76.7625V55.96H102.683V53.96ZM75.766 55.043C75.9958 57.8008 76.9749 60.0592 78.7739 61.7123L80.1271 60.2397C78.7687 58.9914 77.9559 57.2392 77.759 54.877L75.766 55.043ZM78.7739 61.7123C80.5516 63.3459 82.7403 64.152 85.2745 64.152V62.152C83.2007 62.152 81.5068 61.5074 80.1271 60.2397L78.7739 61.7123ZM85.2745 64.152C87.0835 64.152 88.6943 63.7624 90.0633 62.9361C91.4348 62.1083 92.5002 60.8801 93.2756 59.3058L91.4814 58.4221C90.8488 59.7066 90.0262 60.6224 89.0297 61.2239C88.0307 61.8269 86.7935 62.152 85.2745 62.152V64.152ZM92.3785 59.864H102.043V57.864H92.3785V59.864ZM101.085 58.5767C100.123 61.783 98.2856 64.4235 95.5471 66.5176L96.762 68.1064C99.8261 65.7632 101.914 62.7717 103 59.1513L101.085 58.5767ZM95.5545 66.512C92.8537 68.5376 89.5111 69.576 85.4665 69.576V71.576C89.8699 71.576 93.6526 70.4384 96.7545 68.112L95.5545 66.512ZM85.4665 69.576C82.2043 69.576 79.2999 68.8639 76.7303 67.4586L75.7707 69.2134C78.6624 70.7948 81.9021 71.576 85.4665 71.576V69.576ZM76.7466 67.4678C74.2216 66.0249 72.2388 64.0047 70.7893 61.3875L69.0397 62.3565C70.6622 65.286 72.9034 67.5751 75.7544 69.2042L76.7466 67.4678ZM70.795 61.3979C69.3913 58.791 68.6745 55.7584 68.6745 52.272H66.6745C66.6745 56.0389 67.4511 59.4063 69.034 62.3461L70.795 61.3979ZM68.6745 52.272C68.6745 48.7407 69.3921 45.6874 70.795 43.0821L69.034 42.1339C67.4502 45.0753 66.6745 48.4646 66.6745 52.272H68.6745ZM70.795 43.0821C72.2 40.4728 74.1555 38.4803 76.6721 37.0822L75.7009 35.3338C72.8415 36.9224 70.6157 39.1965 69.034 42.1339L70.795 43.0821ZM76.6721 37.0822C79.1921 35.6822 82.114 34.968 85.4665 34.968V32.968C81.8216 32.968 78.5569 33.7472 75.7009 35.3338L76.6721 37.0822ZM85.4665 34.968C88.6891 34.968 91.5284 35.6601 94.0097 37.0208L94.9713 35.2672C92.162 33.7266 88.9852 32.968 85.4665 32.968V34.968ZM94.0156 37.024C96.5319 38.3821 98.4604 40.3106 99.8185 42.8269L101.579 41.8771C100.035 39.0174 97.8251 36.8073 94.9654 35.264L94.0156 37.024ZM99.8277 42.8436C101.225 45.3193 101.939 48.1962 101.939 51.504H103.939C103.939 47.8998 103.158 44.6754 101.569 41.8604L99.8277 42.8436ZM94.6583 48.9255C94.6108 46.3614 93.6694 44.2438 91.8066 42.6751L90.5184 44.2049C91.8982 45.3669 92.6208 46.9186 92.6587 48.9625L94.6583 48.9255ZM91.8182 42.685C89.9975 41.1039 87.774 40.328 85.2105 40.328V42.328C87.3403 42.328 89.0848 42.9601 90.5068 44.195L91.8182 42.685ZM85.2105 40.328C82.7681 40.328 80.6484 41.087 78.9141 42.6286L80.2429 44.1234C81.5806 42.9343 83.2156 42.328 85.2105 42.328V40.328ZM78.9155 42.6274C77.2093 44.1386 76.2041 46.2299 75.8366 48.8026L77.8165 49.0854C78.1316 46.8795 78.961 45.2587 80.2415 44.1246L78.9155 42.6274ZM76.8265 49.944H93.6585V47.944H76.8265V49.944ZM118.439 39.728H117.439V42.9969L119.267 40.2875L118.439 39.728ZM123.175 35.568L122.713 34.681L122.705 34.6851L123.175 35.568ZM138.343 36.208L137.819 37.0602L137.826 37.0642L138.343 36.208ZM144.167 42.608L143.275 43.0607L143.279 43.069L143.283 43.0772L144.167 42.608ZM144.167 61.808L143.278 61.35L143.275 61.3553L144.167 61.808ZM138.343 68.272L137.815 67.4223L137.809 67.4265L138.343 68.272ZM123.175 69.04L122.697 69.9186L122.708 69.9248L122.72 69.9306L123.175 69.04ZM118.439 64.944L119.251 64.3608L117.439 61.8365V64.944H118.439ZM118.439 70V71H119.439V70H118.439ZM109.479 70H108.479V71H109.479V70ZM109.479 22.64V21.64H108.479V22.64H109.479ZM118.439 22.64H119.439V21.64H118.439V22.64ZM135.847 46.64L134.967 47.1155L134.975 47.1298L134.983 47.1439L135.847 46.64ZM132.391 43.056L131.891 43.9227L131.903 43.9289L132.391 43.056ZM123.175 43.12L123.673 43.9867L123.682 43.9819L123.175 43.12ZM119.719 46.704L118.849 46.2104L118.844 46.2194L118.839 46.2285L119.719 46.704ZM119.719 57.84L118.839 58.3155L118.844 58.3246L118.849 58.3336L119.719 57.84ZM123.175 61.488L122.656 62.3432L122.671 62.3523L122.687 62.3609L123.175 61.488ZM132.391 61.424L131.883 60.562L131.872 60.5688L132.391 61.424ZM135.847 57.776L134.977 57.2824L134.972 57.2914L134.967 57.3005L135.847 57.776ZM119.267 40.2875C120.319 38.7299 121.768 37.4488 123.644 36.4509L122.705 34.6851C120.57 35.8205 118.862 37.3127 117.61 39.1685L119.267 40.2875ZM123.636 36.4549C125.525 35.4715 127.688 34.968 130.151 34.968V32.968C127.408 32.968 124.92 33.5311 122.713 34.6811L123.636 36.4549ZM130.151 34.968C133.007 34.968 135.554 35.6695 137.819 37.0602L138.866 35.3558C136.267 33.7598 133.353 32.968 130.151 32.968V34.968ZM137.826 37.0642C140.128 38.4534 141.945 40.4411 143.275 43.0607L145.058 42.1553C143.572 39.2282 141.506 36.9493 138.859 35.3518L137.826 37.0642ZM143.283 43.0772C144.645 45.6403 145.343 48.6526 145.343 52.144H147.343C147.343 48.3821 146.589 45.0371 145.05 42.1388L143.283 43.0772ZM145.343 52.144C145.343 55.6346 144.645 58.695 143.278 61.35L145.055 62.266C146.589 59.289 147.343 55.9068 147.343 52.144H145.343ZM143.275 61.3553C141.944 63.977 140.124 65.9894 137.815 67.4224L138.87 69.1216C141.511 67.4826 143.573 65.1857 145.058 62.2607L143.275 61.3553ZM137.809 67.4265C135.545 68.8561 133.001 69.576 130.151 69.576V71.576C133.358 71.576 136.276 70.7599 138.876 69.1175L137.809 67.4265ZM130.151 69.576C127.636 69.576 125.471 69.0899 123.629 68.1494L122.72 69.9306C124.889 71.0381 127.375 71.576 130.151 71.576V69.576ZM123.652 68.1614C121.81 67.1601 120.35 65.8916 119.251 64.3608L117.626 65.5272C118.916 67.3244 120.614 68.7866 122.697 69.9186L123.652 68.1614ZM117.439 64.944V70H119.439V64.944H117.439ZM118.439 69H109.479V71H118.439V69ZM110.479 70V22.64H108.479V70H110.479ZM109.479 23.64H118.439V21.64H109.479V23.64ZM117.439 22.64V39.728H119.439V22.64H117.439ZM138.191 52.144C138.191 49.869 137.712 47.853 136.71 46.1361L134.983 47.1439C135.773 48.499 136.191 50.1523 136.191 52.144H138.191ZM136.726 46.1645C135.79 44.4327 134.508 43.0937 132.878 42.1831L131.903 43.9289C133.174 44.6396 134.196 45.6899 134.967 47.1155L136.726 46.1645ZM132.889 42.1894C131.326 41.2891 129.617 40.84 127.783 40.84V42.84C129.276 42.84 130.639 43.2015 131.892 43.9226L132.889 42.1894ZM127.783 40.84C125.976 40.84 124.266 41.3179 122.667 42.2581L123.682 43.9819C124.985 43.2154 126.346 42.84 127.783 42.84V40.84ZM122.676 42.2534C121.095 43.1632 119.822 44.4952 118.849 46.2104L120.588 47.1976C121.407 45.7555 122.438 44.6981 123.673 43.9866L122.676 42.2534ZM118.839 46.2285C117.893 47.9785 117.439 50.0039 117.439 52.272H119.439C119.439 50.2734 119.837 48.5869 120.598 47.1795L118.839 46.2285ZM117.439 52.272C117.439 54.5401 117.893 56.5655 118.839 58.3155L120.598 57.3645C119.837 55.9571 119.439 54.2706 119.439 52.272H117.439ZM118.849 58.3336C119.82 60.0452 121.088 61.3925 122.656 62.3432L123.693 60.6328C122.445 59.8769 121.409 58.7921 120.588 57.3464L118.849 58.3336ZM122.687 62.3609C124.283 63.2528 125.986 63.704 127.783 63.704V61.704C126.336 61.704 124.968 61.3446 123.662 60.6151L122.687 62.3609ZM127.783 63.704C129.627 63.704 131.343 63.2283 132.909 62.2792L131.872 60.5688C130.622 61.3264 129.266 61.704 127.783 61.704V63.704ZM132.898 62.2859C134.516 61.334 135.792 59.9795 136.726 58.2515L134.967 57.3005C134.194 58.7298 133.167 59.8073 131.883 60.5621L132.898 62.2859ZM136.716 58.2696C137.713 56.5131 138.191 54.4587 138.191 52.144H136.191C136.191 54.1813 135.772 55.8815 134.977 57.2824L136.716 58.2696ZM196.072 28.08L195.611 28.9679L195.616 28.9701L196.072 28.08ZM204.328 35.952L203.456 36.4423L203.46 36.4488L203.463 36.4552L204.328 35.952ZM204.328 59.504L203.463 59.0008L203.461 59.0043L204.328 59.504ZM196.072 67.248L195.616 66.3578L195.611 66.3601L196.072 67.248ZM168.104 70H167.104V71H168.104V70ZM168.104 25.328V24.328H167.104V25.328H168.104ZM194.28 58.544L193.572 57.8369L193.572 57.8369L194.28 58.544ZM194.28 36.848L193.561 37.5434L193.567 37.5492L194.28 36.848ZM177.064 32.88V31.88H176.064V32.88H177.064ZM177.064 62.384H176.064V63.384H177.064V62.384ZM183.72 26.328C188.281 26.328 192.235 27.2189 195.611 28.9679L196.532 27.1921C192.825 25.2718 188.545 24.328 183.72 24.328V26.328ZM195.616 28.9701C199.03 30.7179 201.635 33.2052 203.456 36.4423L205.199 35.4617C203.18 31.8721 200.281 29.1114 196.527 27.1898L195.616 28.9701ZM203.463 36.4552C205.325 39.6516 206.272 43.3981 206.272 47.728H208.272C208.272 43.0979 207.256 38.9938 205.192 35.4488L203.463 36.4552ZM206.272 47.728C206.272 52.0579 205.325 55.8044 203.463 59.0008L205.192 60.0072C207.256 56.4622 208.272 52.3581 208.272 47.728H206.272ZM203.461 59.0043C201.642 62.1571 199.037 64.6066 195.616 66.3579L196.527 68.1381C200.274 66.2201 203.173 63.5069 205.194 60.0037L203.461 59.0043ZM195.611 66.3601C192.235 68.1091 188.281 69 183.72 69V71C188.545 71 192.825 70.0562 196.532 68.1359L195.611 66.3601ZM183.72 69H168.104V71H183.72V69ZM169.104 70V25.328H167.104V70H169.104ZM168.104 26.328H183.72V24.328H168.104V26.328ZM183.4 63.384C188.276 63.384 192.188 62.0496 194.987 59.2511L193.572 57.8369C191.251 60.1584 187.91 61.384 183.4 61.384V63.384ZM194.987 59.2511C197.783 56.4543 199.12 52.5649 199.12 47.728H197.12C197.12 52.1924 195.896 55.5137 193.572 57.8369L194.987 59.2511ZM199.12 47.728C199.12 42.8902 197.783 38.984 194.992 36.1468L193.567 37.5492C195.896 39.9173 197.12 43.2645 197.12 47.728H199.12ZM194.998 36.1526C192.201 33.2626 188.285 31.88 183.4 31.88V33.88C187.9 33.88 191.238 35.1428 193.561 37.5434L194.998 36.1526ZM183.4 31.88H177.064V33.88H183.4V31.88ZM176.064 32.88V62.384H178.064V32.88H176.064ZM177.064 63.384H183.4V61.384H177.064V63.384ZM246.683 54.96V55.96H247.53L247.669 55.1244L246.683 54.96ZM220.763 54.96V53.96H219.676L219.766 55.043L220.763 54.96ZM223.451 60.976L222.774 61.7123L222.774 61.7123L223.451 60.976ZM236.379 58.864V57.864H235.756L235.481 58.4221L236.379 58.864ZM246.043 58.864L247 59.1513L247.387 57.864H246.043V58.864ZM240.155 67.312L240.755 68.112L240.762 68.1064L240.155 67.312ZM220.251 68.336L219.754 69.2042L219.762 69.2089L219.771 69.2134L220.251 68.336ZM213.915 61.872L213.034 62.3461L213.04 62.3565L213.915 61.872ZM213.915 42.608L213.034 42.1339L213.034 42.1339L213.915 42.608ZM220.187 36.208L220.672 37.0822L220.672 37.0822L220.187 36.208ZM238.491 36.144L238.01 37.0208L238.016 37.024L238.491 36.144ZM244.699 42.352L243.818 42.8269L243.823 42.8353L243.828 42.8436L244.699 42.352ZM237.659 48.944V49.944H238.677L238.658 48.9255L237.659 48.944ZM235.163 43.44L234.507 44.195L234.513 44.2L234.518 44.2049L235.163 43.44ZM223.579 43.376L224.242 44.1246L224.243 44.1234L223.579 43.376ZM220.827 48.944L219.837 48.8026L219.673 49.944H220.827V48.944ZM245.939 51.504C245.939 52.7411 245.856 53.8367 245.696 54.7956L247.669 55.1244C247.85 54.0353 247.939 52.8269 247.939 51.504H245.939ZM246.683 53.96H220.763V55.96H246.683V53.96ZM219.766 55.043C219.996 57.8008 220.975 60.0592 222.774 61.7123L224.127 60.2397C222.769 58.9914 221.956 57.2392 221.759 54.877L219.766 55.043ZM222.774 61.7123C224.552 63.3459 226.74 64.152 229.275 64.152V62.152C227.201 62.152 225.507 61.5074 224.127 60.2397L222.774 61.7123ZM229.275 64.152C231.083 64.152 232.694 63.7624 234.063 62.9361C235.435 62.1083 236.5 60.8801 237.276 59.3058L235.481 58.4221C234.849 59.7066 234.026 60.6224 233.03 61.2239C232.031 61.8269 230.794 62.152 229.275 62.152V64.152ZM236.379 59.864H246.043V57.864H236.379V59.864ZM245.085 58.5767C244.123 61.783 242.286 64.4235 239.547 66.5176L240.762 68.1064C243.826 65.7632 245.914 62.7717 247 59.1513L245.085 58.5767ZM239.555 66.512C236.854 68.5376 233.511 69.576 229.467 69.576V71.576C233.87 71.576 237.653 70.4384 240.755 68.112L239.555 66.512ZM229.467 69.576C226.204 69.576 223.3 68.8639 220.73 67.4586L219.771 69.2134C222.662 70.7948 225.902 71.576 229.467 71.576V69.576ZM220.747 67.4678C218.222 66.0249 216.239 64.0047 214.789 61.3875L213.04 62.3565C214.662 65.286 216.903 67.5751 219.754 69.2042L220.747 67.4678ZM214.795 61.3979C213.391 58.791 212.674 55.7584 212.674 52.272H210.674C210.674 56.0389 211.451 59.4063 213.034 62.3461L214.795 61.3979ZM212.674 52.272C212.674 48.7407 213.392 45.6874 214.795 43.0821L213.034 42.1339C211.45 45.0753 210.674 48.4646 210.674 52.272H212.674ZM214.795 43.0821C216.2 40.4728 218.156 38.4803 220.672 37.0822L219.701 35.3338C216.841 36.9224 214.616 39.1965 213.034 42.1339L214.795 43.0821ZM220.672 37.0822C223.192 35.6822 226.114 34.968 229.467 34.968V32.968C225.822 32.968 222.557 33.7472 219.701 35.3338L220.672 37.0822ZM229.467 34.968C232.689 34.968 235.528 35.6601 238.01 37.0208L238.971 35.2672C236.162 33.7266 232.985 32.968 229.467 32.968V34.968ZM238.016 37.024C240.532 38.3821 242.46 40.3106 243.818 42.8269L245.579 41.8771C244.035 39.0174 241.825 36.8073 238.965 35.264L238.016 37.024ZM243.828 42.8436C245.225 45.3193 245.939 48.1962 245.939 51.504H247.939C247.939 47.8998 247.158 44.6754 245.569 41.8604L243.828 42.8436ZM238.658 48.9255C238.611 46.3614 237.669 44.2438 235.807 42.6751L234.518 44.2049C235.898 45.3669 236.621 46.9186 236.659 48.9625L238.658 48.9255ZM235.818 42.685C233.998 41.1039 231.774 40.328 229.211 40.328V42.328C231.34 42.328 233.085 42.9601 234.507 44.195L235.818 42.685ZM229.211 40.328C226.768 40.328 224.648 41.087 222.914 42.6286L224.243 44.1234C225.581 42.9343 227.216 42.328 229.211 42.328V40.328ZM222.915 42.6274C221.209 44.1386 220.204 46.2299 219.837 48.8026L221.816 49.0854C222.132 46.8795 222.961 45.2587 224.242 44.1246L222.915 42.6274ZM220.827 49.944H237.659V47.944H220.827V49.944ZM259.239 69.04L258.818 69.9475L258.825 69.9507L258.832 69.9538L259.239 69.04ZM253.735 64.752L252.93 65.3459L252.934 65.352L252.939 65.358L253.735 64.752ZM251.559 58.8V57.8H250.498L250.56 58.8587L251.559 58.8ZM260.583 58.8L261.575 58.676L261.465 57.8H260.583V58.8ZM262.567 62.192L261.953 62.9814L261.959 62.9867L261.967 62.992L262.567 62.192ZM270.951 62.512L270.379 61.6911L270.371 61.6971L270.362 61.7033L270.951 62.512ZM270.631 57.328L270.17 58.2158L270.19 58.2258L270.209 58.235L270.631 57.328ZM265.062 55.408L265.32 54.4418L265.309 54.4388L265.298 54.436L265.062 55.408ZM258.535 53.424L258.155 54.3492L258.163 54.3525L258.535 53.424ZM254.183 50.288L253.42 50.935L253.426 50.9416L253.431 50.9481L254.183 50.288ZM254.055 39.216L253.239 38.6368L253.234 38.644L253.229 38.6513L254.055 39.216ZM258.919 35.376L258.516 34.4607L258.509 34.4637L258.919 35.376ZM276.519 37.168L275.872 37.9309L275.88 37.9373L276.519 37.168ZM280.679 45.68V46.68H281.752L281.676 45.6088L280.679 45.68ZM272.103 45.68L271.107 45.7705L271.189 46.68H272.103V45.68ZM270.311 42.352L269.67 43.1202L269.688 43.1346L269.705 43.1482L270.311 42.352ZM262.375 41.968L261.82 41.1359L261.81 41.1423L261.801 41.1488L262.375 41.968ZM262.887 47.216L262.414 48.0975L262.427 48.1041L262.439 48.1104L262.887 47.216ZM268.455 49.072L268.208 50.0412L268.212 50.0421L268.455 49.072ZM279.079 54.256L278.307 54.8917L278.317 54.9041L278.327 54.9161L279.079 54.256ZM280.999 59.888H281.999V59.8789L281.998 59.8698L280.999 59.888ZM279.271 65.392L278.455 64.8128L278.45 64.82L278.445 64.8273L279.271 65.392ZM274.407 69.232L274.8 70.1512L274.809 70.1473L274.407 69.232ZM267.047 69.576C264.264 69.576 261.803 69.0854 259.645 68.1262L258.832 69.9538C261.282 71.0426 264.026 71.576 267.047 71.576V69.576ZM259.659 68.1325C257.483 67.1255 255.785 65.7927 254.53 64.146L252.939 65.358C254.415 67.2953 256.386 68.8212 258.818 69.9475L259.659 68.1325ZM254.539 64.1581C253.329 62.5184 252.673 60.7195 252.557 58.7413L250.56 58.8587C250.7 61.2325 251.495 63.4016 252.93 65.3459L254.539 64.1581ZM251.559 59.8H260.583V57.8H251.559V59.8ZM259.59 58.924C259.796 60.5697 260.605 61.9335 261.953 62.9814L263.18 61.4026C262.224 60.6585 261.71 59.7609 261.575 58.676L259.59 58.924ZM261.967 62.992C263.363 64.0391 265.055 64.536 266.983 64.536V62.536C265.411 62.536 264.16 62.1369 263.167 61.392L261.967 62.992ZM266.983 64.536C268.806 64.536 270.366 64.1738 271.539 63.3207L270.362 61.7033C269.658 62.2155 268.573 62.536 266.983 62.536V64.536ZM271.522 63.3329C272.734 62.4896 273.423 61.3255 273.423 59.888H271.423C271.423 60.5839 271.13 61.1691 270.379 61.6911L271.522 63.3329ZM273.423 59.888C273.423 59.1296 273.222 58.423 272.794 57.8105C272.371 57.2061 271.767 56.7532 271.052 56.421L270.209 58.235C270.689 58.4575 270.981 58.7085 271.155 58.9575C271.324 59.1983 271.423 59.4944 271.423 59.888H273.423ZM271.091 56.4402C269.837 55.7903 267.894 55.128 265.32 54.4418L264.805 56.3742C267.351 57.0533 269.12 57.671 270.17 58.2158L271.091 56.4402ZM265.298 54.436C262.679 53.8025 260.553 53.1542 258.906 52.4955L258.163 54.3525C259.93 55.0591 262.155 55.7335 264.827 56.38L265.298 54.436ZM258.914 52.4988C257.399 51.8772 256.074 50.9251 254.934 49.6279L253.431 50.9481C254.766 52.4669 256.342 53.6055 258.155 54.3492L258.914 52.4988ZM254.945 49.641C253.944 48.4614 253.391 46.8154 253.391 44.592H251.391C251.391 47.1473 252.032 49.2986 253.42 50.935L254.945 49.641ZM253.391 44.592C253.391 42.8311 253.884 41.2359 254.88 39.7807L253.229 38.6513C252.006 40.4388 251.391 42.4276 251.391 44.592H253.391ZM254.87 39.7952C255.904 38.3399 257.375 37.1653 259.328 36.2883L258.509 34.4637C256.281 35.4641 254.509 36.8494 253.239 38.6368L254.87 39.7952ZM259.321 36.2913C261.302 35.4196 263.656 34.968 266.407 34.968V32.968C263.44 32.968 260.801 33.455 258.516 34.4607L259.321 36.2913ZM266.407 34.968C270.462 34.968 273.581 35.9894 275.872 37.9309L277.165 36.4051C274.421 34.0799 270.799 32.968 266.407 32.968V34.968ZM275.88 37.9373C278.166 39.8358 279.442 42.4096 279.681 45.7512L281.676 45.6088C281.403 41.7824 279.906 38.6815 277.157 36.3987L275.88 37.9373ZM280.679 44.68H272.103V46.68H280.679V44.68ZM273.098 45.5895C272.947 43.9192 272.219 42.5467 270.916 41.5558L269.705 43.1482C270.535 43.7786 271.002 44.6248 271.107 45.7705L273.098 45.5895ZM270.951 41.5838C269.697 40.5393 268.06 40.072 266.151 40.072V42.072C267.74 42.072 268.876 42.458 269.67 43.1202L270.951 41.5838ZM266.151 40.072C264.425 40.072 262.944 40.3867 261.82 41.1359L262.929 42.8C263.597 42.3546 264.633 42.072 266.151 42.072V40.072ZM261.801 41.1488C260.673 41.9385 260.095 43.0804 260.095 44.464H262.095C262.095 43.7143 262.37 43.1921 262.948 42.7872L261.801 41.1488ZM260.095 44.464C260.095 45.2366 260.29 45.9579 260.705 46.5937C261.114 47.223 261.704 47.7167 262.414 48.0975L263.359 46.3345C262.875 46.0753 262.568 45.7903 262.38 45.5023C262.197 45.2208 262.095 44.886 262.095 44.464H260.095ZM262.439 48.1104C263.733 48.7572 265.673 49.3968 268.208 50.0412L268.701 48.1028C266.201 47.4672 264.43 46.8695 263.334 46.3216L262.439 48.1104ZM268.212 50.0421C270.745 50.6753 272.807 51.3231 274.411 51.9812L275.17 50.1308C273.446 49.4236 271.284 48.7487 268.697 48.1019L268.212 50.0421ZM274.411 51.9812C275.915 52.5984 277.212 53.5625 278.307 54.8917L279.85 53.6203C278.556 52.0482 276.994 50.879 275.17 50.1308L274.411 51.9812ZM278.327 54.9161C279.372 56.105 279.959 57.7347 279.999 59.9062L281.998 59.8698C281.952 57.348 281.26 55.223 279.83 53.5959L278.327 54.9161ZM279.999 59.888C279.999 61.735 279.483 63.366 278.455 64.8128L280.086 65.9712C281.362 64.1754 281.999 62.137 281.999 59.888H279.999ZM278.445 64.8273C277.459 66.268 275.998 67.439 274.004 68.3167L274.809 70.1473C277.081 69.1477 278.863 67.7587 280.096 65.9567L278.445 64.8273ZM274.013 68.3129C272.072 69.1444 269.758 69.576 267.047 69.576V71.576C269.967 71.576 272.559 71.1116 274.8 70.1511L274.013 68.3129ZM288.93 28.848L288.222 29.5551L288.237 29.5698L288.252 29.5839L288.93 28.848ZM288.93 21.36L289.621 22.082L289.622 22.0814L288.93 21.36ZM296.802 21.36L296.094 22.0671L296.109 22.0818L296.124 22.0959L296.802 21.36ZM296.802 28.848L297.493 29.57L297.494 29.5694L296.802 28.848ZM297.314 34.544H298.314V33.544H297.314V34.544ZM297.314 70V71H298.314V70H297.314ZM288.354 70H287.354V71H288.354V70ZM288.354 34.544V33.544H287.354V34.544H288.354ZM292.898 29.32C291.545 29.32 290.471 28.9078 289.607 28.1121L288.252 29.5839C289.521 30.7509 291.092 31.32 292.898 31.32V29.32ZM289.637 28.1409C288.807 27.3109 288.394 26.3094 288.394 25.072H286.394C286.394 26.8213 287.004 28.3371 288.222 29.5551L289.637 28.1409ZM288.394 25.072C288.394 23.8351 288.806 22.8638 289.621 22.082L288.238 20.638C287.005 21.8188 286.394 23.3222 286.394 25.072H288.394ZM289.622 22.0814C290.489 21.249 291.558 20.824 292.898 20.824V18.824C291.08 18.824 289.503 19.4229 288.237 20.6386L289.622 22.0814ZM292.898 20.824C294.237 20.824 295.276 21.2485 296.094 22.0671L297.509 20.6529C296.279 19.4235 294.715 18.824 292.898 18.824V20.824ZM296.124 22.0959C296.978 22.8815 297.402 23.8487 297.402 25.072H299.402C299.402 23.3086 298.758 21.8012 297.479 20.6241L296.124 22.0959ZM297.402 25.072C297.402 26.2961 296.977 27.2933 296.109 28.1266L297.494 29.5694C298.759 28.3547 299.402 26.8346 299.402 25.072H297.402ZM296.11 28.126C295.293 28.9081 294.25 29.32 292.898 29.32V31.32C294.702 31.32 296.262 30.7505 297.493 29.57L296.11 28.126ZM296.314 34.544V70H298.314V34.544H296.314ZM297.314 69H288.354V71H297.314V69ZM289.354 70V34.544H287.354V70H289.354ZM288.354 35.544H297.314V33.544H288.354V35.544ZM327.03 35.568L326.56 36.4509L326.568 36.4548L326.575 36.4586L327.03 35.568ZM331.766 39.6L330.944 40.1692L332.766 42.8013V39.6H331.766ZM331.766 34.544V33.544H330.766V34.544H331.766ZM340.79 34.544H341.79V33.544H340.79V34.544ZM338.806 79.024L337.918 78.565L337.915 78.571L338.806 79.024ZM332.854 85.168L332.362 84.2971L332.352 84.3032L332.854 85.168ZM310.838 83.952L310.247 84.7584L310.252 84.7621L310.838 83.952ZM305.398 74.352V73.352H304.287L304.403 74.4567L305.398 74.352ZM314.294 74.352L315.255 74.0739L315.046 73.352H314.294V74.352ZM317.302 78.192L317.83 77.3427L317.823 77.3387L317.302 78.192ZM329.334 77.296L328.646 76.57L328.636 76.5795L329.334 77.296ZM331.766 64.752H332.766V61.5507L330.944 64.1828L331.766 64.752ZM326.966 68.912L326.49 68.0327L326.482 68.037L326.966 68.912ZM311.862 68.272L312.389 67.4224L312.389 67.4224L311.862 68.272ZM305.974 61.808L305.08 62.2552L305.084 62.2634L305.088 62.2715L305.974 61.808ZM305.974 42.608L305.088 42.1445L305.082 42.1553L305.974 42.608ZM311.798 36.208L311.281 35.3518L311.275 35.3558L311.798 36.208ZM330.486 46.704L329.606 47.1795L329.612 47.1896L330.486 46.704ZM327.03 43.12L326.523 43.9819L326.533 43.9875L326.542 43.9929L327.03 43.12ZM317.75 43.056L317.251 42.1894L317.251 42.1894L317.75 43.056ZM314.294 46.64L313.424 46.1464L313.42 46.1544L314.294 46.64ZM314.294 57.776L313.409 58.2417L313.416 58.2558L313.424 58.2696L314.294 57.776ZM317.75 61.424L317.232 62.2793L317.243 62.2859L317.75 61.424ZM327.03 61.488L327.518 62.3609L327.527 62.3555L327.537 62.3499L327.03 61.488ZM330.486 57.904L331.36 58.3897L331.366 58.3795L330.486 57.904ZM320.054 34.968C322.563 34.968 324.722 35.4729 326.56 36.4509L327.5 34.6851C325.328 33.5298 322.836 32.968 320.054 32.968V34.968ZM326.575 36.4586C328.45 37.4161 329.896 38.6558 330.944 40.1692L332.588 39.0308C331.332 37.2162 329.62 35.7679 327.485 34.6774L326.575 36.4586ZM332.766 39.6V34.544H330.766V39.6H332.766ZM331.766 35.544H340.79V33.544H331.766V35.544ZM339.79 34.544V70.256H341.79V34.544H339.79ZM339.79 70.256C339.79 73.4042 339.157 76.1656 337.918 78.565L339.694 79.483C341.1 76.7624 341.79 73.6785 341.79 70.256H339.79ZM337.915 78.571C336.685 80.9906 334.844 82.8965 332.362 84.2972L333.346 86.0388C336.155 84.4528 338.282 82.2627 339.697 79.4771L337.915 78.571ZM332.352 84.3032C329.89 85.7326 326.872 86.472 323.254 86.472V88.472C327.145 88.472 330.527 87.6754 333.356 86.0328L332.352 84.3032ZM323.254 86.472C318.375 86.472 314.457 85.3365 311.424 83.1419L310.252 84.7621C313.705 87.2609 318.064 88.472 323.254 88.472V86.472ZM311.429 83.1456C308.464 80.9706 306.791 78.029 306.393 74.2473L304.403 74.4567C304.859 78.7816 306.812 82.24 310.247 84.7584L311.429 83.1456ZM305.398 75.352H314.294V73.352H305.398V75.352ZM313.333 74.6301C313.877 76.5081 315.047 77.9859 316.781 79.0453L317.823 77.3387C316.485 76.5208 315.65 75.4386 315.255 74.0739L313.333 74.6301ZM316.774 79.0413C318.54 80.1388 320.629 80.664 322.998 80.664V78.664C320.929 78.664 319.222 78.2079 317.83 77.3427L316.774 79.0413ZM322.998 80.664C325.819 80.664 328.195 79.8004 330.032 78.0125L328.636 76.5795C327.23 77.9489 325.382 78.664 322.998 78.664V80.664ZM330.022 78.022C331.913 76.23 332.766 73.5721 332.766 70.256H330.766C330.766 73.2546 329.997 75.29 328.646 76.57L330.022 78.022ZM332.766 70.256V64.752H330.766V70.256H332.766ZM330.944 64.1828C329.894 65.6995 328.421 66.9868 326.49 68.0327L327.442 69.7913C329.607 68.6185 331.334 67.1325 332.588 65.3212L330.944 64.1828ZM326.482 68.037C324.644 69.0537 322.511 69.576 320.054 69.576V71.576C322.803 71.576 325.277 70.9889 327.45 69.787L326.482 68.037ZM320.054 69.576C317.249 69.576 314.701 68.8575 312.389 67.4224L311.335 69.1216C313.972 70.7585 316.886 71.576 320.054 71.576V69.576ZM312.389 67.4224C310.078 65.9877 308.234 63.9716 306.86 61.3445L305.088 62.2715C306.615 65.1911 308.697 67.4843 311.335 69.1216L312.389 67.4224ZM306.868 61.3608C305.54 58.7033 304.862 55.6391 304.862 52.144H302.862C302.862 55.9023 303.592 59.2807 305.08 62.2552L306.868 61.3608ZM304.862 52.144C304.862 48.6933 305.539 45.6738 306.866 43.0607L305.082 42.1553C303.593 45.0889 302.862 48.4267 302.862 52.144H304.862ZM306.86 43.0715C308.235 40.4421 310.058 38.4501 312.321 37.0602L311.275 35.3558C308.674 36.9526 306.614 39.2272 305.088 42.1445L306.86 43.0715ZM312.315 37.0642C314.626 35.6696 317.198 34.968 320.054 34.968V32.968C316.852 32.968 313.92 33.7598 311.281 35.3518L312.315 37.0642ZM332.766 52.272C332.766 49.9661 332.313 47.9344 331.36 46.2184L329.612 47.1896C330.365 48.5456 330.766 50.2259 330.766 52.272H332.766ZM331.366 46.2285C330.43 44.4967 329.147 43.1577 327.518 42.2471L326.542 43.9929C327.814 44.7036 328.836 45.7539 329.606 47.1795L331.366 46.2285ZM327.537 42.2581C325.935 41.3154 324.202 40.84 322.358 40.84V42.84C323.842 42.84 325.224 43.2179 326.523 43.9819L327.537 42.2581ZM322.358 40.84C320.523 40.84 318.815 41.2891 317.251 42.1894L318.249 43.9226C319.501 43.2015 320.865 42.84 322.358 42.84V40.84ZM317.251 42.1894C315.671 43.0992 314.398 44.4312 313.424 46.1464L315.164 47.1336C315.982 45.6915 317.013 44.6341 318.249 43.9226L317.251 42.1894ZM313.42 46.1544C312.468 47.8676 312.014 49.8769 312.014 52.144H314.014C314.014 50.1444 314.413 48.4844 315.168 47.1256L313.42 46.1544ZM312.014 52.144C312.014 54.4129 312.469 56.4549 313.409 58.2417L315.179 57.3103C314.413 55.8545 314.014 54.1418 314.014 52.144H312.014ZM313.424 58.2696C314.396 59.9812 315.663 61.3285 317.232 62.2792L318.268 60.5688C317.021 59.8129 315.984 58.7281 315.164 57.2824L313.424 58.2696ZM317.243 62.2859C318.841 63.2261 320.551 63.704 322.358 63.704V61.704C320.922 61.704 319.56 61.3286 318.257 60.5621L317.243 62.2859ZM322.358 63.704C324.193 63.704 325.918 63.255 327.518 62.3609L326.542 60.6151C325.241 61.3423 323.851 61.704 322.358 61.704V63.704ZM327.537 62.3499C329.148 61.4021 330.424 60.0744 331.36 58.3896L329.612 57.4184C328.841 58.8056 327.813 59.8672 326.523 60.6261L327.537 62.3499ZM331.366 58.3795C332.313 56.6268 332.766 54.579 332.766 52.272H330.766C330.766 54.317 330.366 56.0239 329.606 57.4285L331.366 58.3795ZM379.429 38.064L378.711 38.7596L378.716 38.7653L379.429 38.064ZM383.333 70V71H384.333V70H383.333ZM374.373 70H373.373V71H374.373V70ZM372.261 43.952L371.524 44.6278L371.533 44.638L372.261 43.952ZM360.613 43.952L359.886 43.2654L359.885 43.266L360.613 43.952ZM358.501 70V71H359.501V70H358.501ZM349.541 70H348.541V71H349.541V70ZM349.541 34.544V33.544H348.541V34.544H349.541ZM358.501 34.544H359.501V33.544H358.501V34.544ZM358.501 38.96H357.501V41.8745L359.29 39.5739L358.501 38.96ZM363.045 35.376L363.467 36.2828L363.476 36.2785L363.045 35.376ZM369.189 35.032C373.18 35.032 376.321 36.292 378.711 38.7596L380.147 37.3684C377.331 34.46 373.646 33.032 369.189 33.032V35.032ZM378.716 38.7653C381.086 41.1741 382.333 44.605 382.333 49.2H384.333C384.333 44.2377 382.977 40.2445 380.142 37.3627L378.716 38.7653ZM382.333 49.2V70H384.333V49.2H382.333ZM383.333 69H374.373V71H383.333V69ZM375.373 70V50.416H373.373V70H375.373ZM375.373 50.416C375.373 47.4411 374.628 45.0047 372.989 43.266L371.533 44.638C372.71 45.886 373.373 47.7589 373.373 50.416H375.373ZM372.998 43.2763C371.369 41.4986 369.162 40.648 366.501 40.648V42.648C368.704 42.648 370.337 43.3334 371.524 44.6277L372.998 43.2763ZM366.501 40.648C363.802 40.648 361.558 41.4949 359.886 43.2654L361.34 44.6386C362.569 43.3371 364.25 42.648 366.501 42.648V40.648ZM359.885 43.266C358.246 45.0047 357.501 47.4411 357.501 50.416H359.501C359.501 47.7589 360.164 45.886 361.341 44.638L359.885 43.266ZM357.501 50.416V70H359.501V50.416H357.501ZM358.501 69H349.541V71H358.501V69ZM350.541 70V34.544H348.541V70H350.541ZM349.541 35.544H358.501V33.544H349.541V35.544ZM357.501 34.544V38.96H359.501V34.544H357.501ZM359.29 39.5739C360.384 38.1684 361.77 37.0718 363.467 36.2827L362.623 34.4693C360.65 35.3869 359.008 36.6796 357.712 38.3461L359.29 39.5739ZM363.476 36.2785C365.21 35.4509 367.109 35.032 369.189 35.032V33.032C366.831 33.032 364.635 33.5091 362.614 34.4735L363.476 36.2785ZM424.558 54.96V55.96H425.405L425.544 55.1244L424.558 54.96ZM398.638 54.96V53.96H397.551L397.641 55.043L398.638 54.96ZM401.326 60.976L400.649 61.7123L400.649 61.7123L401.326 60.976ZM414.254 58.864V57.864H413.631L413.356 58.4221L414.254 58.864ZM423.918 58.864L424.875 59.1513L425.262 57.864H423.918V58.864ZM418.03 67.312L418.63 68.112L418.637 68.1064L418.03 67.312ZM398.126 68.336L397.629 69.2042L397.637 69.2089L397.646 69.2134L398.126 68.336ZM391.79 61.872L390.909 62.3461L390.915 62.3565L391.79 61.872ZM391.79 42.608L390.909 42.1339L390.909 42.1339L391.79 42.608ZM398.062 36.208L398.547 37.0822L398.547 37.0822L398.062 36.208ZM416.366 36.144L415.885 37.0208L415.891 37.024L416.366 36.144ZM422.574 42.352L421.693 42.8269L421.698 42.8353L421.703 42.8436L422.574 42.352ZM415.534 48.944V49.944H416.552L416.533 48.9255L415.534 48.944ZM413.038 43.44L412.382 44.195L412.388 44.2L412.393 44.2049L413.038 43.44ZM401.454 43.376L402.117 44.1246L402.118 44.1234L401.454 43.376ZM398.702 48.944L397.712 48.8026L397.548 49.944H398.702V48.944ZM423.814 51.504C423.814 52.7411 423.731 53.8367 423.571 54.7956L425.544 55.1244C425.725 54.0353 425.814 52.8269 425.814 51.504H423.814ZM424.558 53.96H398.638V55.96H424.558V53.96ZM397.641 55.043C397.871 57.8008 398.85 60.0592 400.649 61.7123L402.002 60.2397C400.644 58.9914 399.831 57.2392 399.634 54.877L397.641 55.043ZM400.649 61.7123C402.427 63.3459 404.615 64.152 407.15 64.152V62.152C405.076 62.152 403.382 61.5074 402.002 60.2397L400.649 61.7123ZM407.15 64.152C408.958 64.152 410.569 63.7624 411.938 62.9361C413.31 62.1083 414.375 60.8801 415.151 59.3058L413.356 58.4221C412.724 59.7066 411.901 60.6224 410.905 61.2239C409.906 61.8269 408.669 62.152 407.15 62.152V64.152ZM414.254 59.864H423.918V57.864H414.254V59.864ZM422.96 58.5767C421.998 61.783 420.161 64.4235 417.422 66.5176L418.637 68.1064C421.701 65.7632 423.789 62.7717 424.875 59.1513L422.96 58.5767ZM417.43 66.512C414.729 68.5376 411.386 69.576 407.342 69.576V71.576C411.745 71.576 415.528 70.4384 418.63 68.112L417.43 66.512ZM407.342 69.576C404.079 69.576 401.175 68.8639 398.605 67.4586L397.646 69.2134C400.537 70.7948 403.777 71.576 407.342 71.576V69.576ZM398.622 67.4678C396.097 66.0249 394.114 64.0047 392.664 61.3875L390.915 62.3565C392.537 65.286 394.778 67.5751 397.629 69.2042L398.622 67.4678ZM392.67 61.3979C391.266 58.791 390.549 55.7584 390.549 52.272H388.549C388.549 56.0389 389.326 59.4063 390.909 62.3461L392.67 61.3979ZM390.549 52.272C390.549 48.7407 391.267 45.6874 392.67 43.0821L390.909 42.1339C389.325 45.0753 388.549 48.4646 388.549 52.272H390.549ZM392.67 43.0821C394.075 40.4728 396.031 38.4803 398.547 37.0822L397.576 35.3338C394.716 36.9224 392.491 39.1965 390.909 42.1339L392.67 43.0821ZM398.547 37.0822C401.067 35.6822 403.989 34.968 407.342 34.968V32.968C403.697 32.968 400.432 33.7472 397.576 35.3338L398.547 37.0822ZM407.342 34.968C410.564 34.968 413.403 35.6601 415.885 37.0208L416.846 35.2672C414.037 33.7266 410.86 32.968 407.342 32.968V34.968ZM415.891 37.024C418.407 38.3821 420.335 40.3106 421.693 42.8269L423.454 41.8771C421.91 39.0174 419.7 36.8073 416.84 35.264L415.891 37.024ZM421.703 42.8436C423.1 45.3193 423.814 48.1962 423.814 51.504H425.814C425.814 47.8998 425.033 44.6754 423.444 41.8604L421.703 42.8436ZM416.533 48.9255C416.486 46.3614 415.544 44.2438 413.682 42.6751L412.393 44.2049C413.773 45.3669 414.496 46.9186 414.534 48.9625L416.533 48.9255ZM413.693 42.685C411.873 41.1039 409.649 40.328 407.086 40.328V42.328C409.215 42.328 410.96 42.9601 412.382 44.195L413.693 42.685ZM407.086 40.328C404.643 40.328 402.523 41.087 400.789 42.6286L402.118 44.1234C403.456 42.9343 405.091 42.328 407.086 42.328V40.328ZM400.79 42.6274C399.084 44.1386 398.079 46.2299 397.712 48.8026L399.691 49.0854C400.007 46.8795 400.836 45.2587 402.117 44.1246L400.79 42.6274ZM398.702 49.944H415.534V47.944H398.702V49.944ZM440.314 40.048H439.314V43.5896L441.166 40.571L440.314 40.048ZM444.794 35.632L444.299 34.7625L444.291 34.7675L444.794 35.632ZM451.194 34.032H452.194V33.032H451.194V34.032ZM451.194 43.44V44.44H452.194V43.44H451.194ZM442.426 45.424L441.752 44.685L441.746 44.6901L441.741 44.6952L442.426 45.424ZM440.314 70V71H441.314V70H440.314ZM431.354 70H430.354V71H431.354V70ZM431.354 34.544V33.544H430.354V34.544H431.354ZM440.314 34.544H441.314V33.544H440.314V34.544ZM441.166 40.571C442.235 38.8291 443.61 37.4768 445.296 36.4965L444.291 34.7675C442.308 35.9205 440.696 37.5122 439.461 39.525L441.166 40.571ZM445.288 36.5015C446.999 35.5292 448.958 35.032 451.194 35.032V33.032C448.65 33.032 446.343 33.6014 444.299 34.7625L445.288 36.5015ZM450.194 34.032V43.44H452.194V34.032H450.194ZM451.194 42.44H448.826V44.44H451.194V42.44ZM448.826 42.44C445.868 42.44 443.453 43.1339 441.752 44.685L443.099 46.163C444.299 45.0688 446.151 44.44 448.826 44.44V42.44ZM441.741 44.6952C440.029 46.3034 439.314 48.9576 439.314 52.336H441.314C441.314 49.1437 442.006 47.1899 443.11 46.1528L441.741 44.6952ZM439.314 52.336V70H441.314V52.336H439.314ZM440.314 69H431.354V71H440.314V69ZM432.354 70V34.544H430.354V70H432.354ZM431.354 35.544H440.314V33.544H431.354V35.544ZM439.314 34.544V40.048H441.314V34.544H439.314Z" fill="url(#paint0_linear_68_23)" fill-opacity="0.65"/>
<defs>
<linearGradient id="paint0_linear_68_23" x1="19.5" y1="45.5534" x2="430.5" y2="45.5534" gradientUnits="userSpaceOnUse">
<stop stop-color="#311FFF"/>
<stop offset="1" stop-color="#00FF57" stop-opacity="0.92"/>
</linearGradient>
</defs>
</svg>
