<svg width="248" height="60" viewBox="0 0 261 73" fill="none" xmlns="http://www.w3.org/2000/svg">
<path d="M96.9378 4.60797L97.9055 4.86023L98.2319 3.60798H96.9378V4.60797ZM79.3699 71.9999V72.9999H80.1426L80.3375 72.2522L79.3699 71.9999ZM59.4979 71.9999L58.526 72.2355L58.7113 72.9999H59.4979V71.9999ZM48.7459 27.648L49.7177 27.4124L47.776 27.4044L48.7459 27.648ZM37.6099 71.9999V72.9999H38.3898L38.5798 72.2435L37.6099 71.9999ZM17.7379 71.9999L16.7686 72.2457L16.9598 72.9999H17.7379V71.9999ZM0.6499 4.60797V3.60798H-0.635306L-0.319424 4.85376L0.6499 4.60797ZM18.2179 4.60797L19.1989 4.41407L19.0396 3.60798H18.2179V4.60797ZM27.9139 53.6639L26.9329 53.8578L28.8852 53.9016L27.9139 53.6639ZM39.9139 4.60797V3.60798H39.129L38.9425 4.37036L39.9139 4.60797ZM57.9619 4.60797L58.9354 4.37936L58.7542 3.60798H57.9619V4.60797ZM69.4819 53.6639L68.5083 53.8926L70.4625 53.8597L69.4819 53.6639ZM79.2739 4.60797V3.60798H78.4537L78.2932 4.41223L79.2739 4.60797ZM95.9702 4.35572L78.4022 71.7477L80.3375 72.2522L97.9055 4.86023L95.9702 4.35572ZM79.3699 70.9999H59.4979V72.9999H79.3699V70.9999ZM60.4697 71.7643L49.7177 27.4124L47.774 27.8836L58.526 72.2355L60.4697 71.7643ZM47.776 27.4044L36.64 71.7564L38.5798 72.2435L49.7158 27.8915L47.776 27.4044ZM37.6099 70.9999H17.7379V72.9999H37.6099V70.9999ZM18.7072 71.7542L1.61922 4.36219L-0.319424 4.85376L16.7686 72.2457L18.7072 71.7542ZM0.6499 5.60797H18.2179V3.60798H0.6499V5.60797ZM17.2369 4.80188L26.9329 53.8578L28.8949 53.47L19.1989 4.41407L17.2369 4.80188ZM28.8852 53.9016L40.8852 4.84559L38.9425 4.37036L26.9425 53.4263L28.8852 53.9016ZM39.9139 5.60797H57.9619V3.60798H39.9139V5.60797ZM56.9884 4.83659L68.5083 53.8926L70.4554 53.4353L58.9354 4.37936L56.9884 4.83659ZM70.4625 53.8597L80.2545 4.80372L78.2932 4.41223L68.5012 53.4682L70.4625 53.8597ZM79.2739 5.60797H96.9378V3.60798H79.2739V5.60797ZM115.347 69.4079L114.872 70.2884L114.878 70.2914L115.347 69.4079ZM105.459 59.8079L104.589 60.3027L104.595 60.3126L105.459 59.8079ZM105.555 30.72L106.418 31.2247L106.421 31.2189L105.555 30.72ZM115.539 21.024L116.007 21.9074L116.007 21.9074L115.539 21.024ZM143.955 21.024L143.486 21.9074L143.486 21.9074L143.955 21.024ZM153.939 30.72L153.072 31.2189L153.075 31.2247L153.939 30.72ZM153.843 59.8079L152.982 59.2992L152.979 59.3032L153.843 59.8079ZM143.763 69.4079L143.3 68.5216L143.294 68.5245L143.763 69.4079ZM137.523 55.1039L136.806 54.4069L136.801 54.4121L136.796 54.4173L137.523 55.1039ZM137.619 35.328L136.881 36.0037L136.886 36.0092L136.892 36.0146L137.619 35.328ZM121.779 35.328L122.506 36.014L122.516 36.0037L121.779 35.328ZM121.683 55.1039L120.935 55.7683L120.94 55.774L120.945 55.7797L121.683 55.1039ZM129.555 71.7679C124.454 71.7679 119.881 70.6807 115.815 68.5245L114.878 70.2914C119.26 72.6152 124.16 73.7679 129.555 73.7679V71.7679ZM115.821 68.5275C111.826 66.3764 108.663 63.3079 106.322 59.3032L104.595 60.3126C107.118 64.628 110.547 67.9595 114.872 70.2884L115.821 68.5275ZM106.328 59.3132C104.059 55.327 102.907 50.6391 102.907 45.216H100.907C100.907 50.9288 102.123 55.9689 104.59 60.3026L106.328 59.3132ZM102.907 45.216C102.907 39.8637 104.088 35.2108 106.418 31.2247L104.691 30.2153C102.158 34.5491 100.907 39.5602 100.907 45.216H102.907ZM106.421 31.2189C108.761 27.1546 111.953 24.0575 116.007 21.9074L115.07 20.1405C110.676 22.4705 107.212 25.8373 104.688 30.221L106.421 31.2189ZM116.007 21.9074C120.073 19.7512 124.646 18.664 129.747 18.664V16.664C124.352 16.664 119.452 17.8167 115.07 20.1405L116.007 21.9074ZM129.747 18.664C134.848 18.664 139.42 19.7512 143.486 21.9074L144.423 20.1405C140.041 17.8167 135.142 16.664 129.747 16.664V18.664ZM143.486 21.9074C147.54 24.0575 150.732 27.1546 153.072 31.2189L154.805 30.221C152.281 25.8373 148.817 22.4705 144.423 20.1405L143.486 21.9074ZM153.075 31.2247C155.406 35.2108 156.587 39.8637 156.587 45.216H158.587C158.587 39.5602 157.335 34.5491 154.802 30.2153L153.075 31.2247ZM156.587 45.216C156.587 50.5633 155.376 55.2474 152.982 59.2992L154.703 60.3167C157.301 55.9205 158.587 50.8766 158.587 45.216H156.587ZM152.979 59.3032C150.643 63.3002 147.422 66.3683 143.3 68.5216L144.226 70.2943C148.68 67.9676 152.179 64.6356 154.706 60.3126L152.979 59.3032ZM143.294 68.5245C139.228 70.6807 134.656 71.7679 129.555 71.7679V73.7679C134.95 73.7679 139.849 72.6152 144.231 70.2914L143.294 68.5245ZM129.555 59.5599C132.969 59.5599 135.887 58.2922 138.25 55.7906L136.796 54.4173C134.806 56.5237 132.412 57.5599 129.555 57.5599V59.5599ZM138.24 55.801C140.715 53.2547 141.883 49.6748 141.883 45.216H139.883C139.883 49.3331 138.81 52.3451 136.806 54.4069L138.24 55.801ZM141.883 45.216C141.883 40.7645 140.751 37.1884 138.346 34.6413L136.892 36.0146C138.838 38.0755 139.883 41.0914 139.883 45.216H141.883ZM138.356 34.6522C136.054 32.1408 133.162 30.872 129.747 30.872V32.872C132.603 32.872 134.96 33.9071 136.881 36.0037L138.356 34.6522ZM129.747 30.872C126.274 30.872 123.348 32.1361 121.041 34.6522L122.516 36.0037C124.433 33.9118 126.819 32.872 129.747 32.872V30.872ZM121.051 34.6419C118.703 37.1323 117.611 40.7146 117.611 45.216H119.611C119.611 41.0133 120.63 38.0036 122.506 36.014L121.051 34.6419ZM117.611 45.216C117.611 49.6531 118.67 53.2205 120.935 55.7683L122.43 54.4396C120.599 52.3794 119.611 49.3548 119.611 45.216H117.611ZM120.945 55.7797C123.248 58.2911 126.139 59.5599 129.555 59.5599V57.5599C126.698 57.5599 124.342 56.5248 122.42 54.4282L120.945 55.7797ZM182.712 27.36H181.712V30.7239L183.549 27.9062L182.712 27.36ZM189.912 20.448L190.412 21.3138L190.419 21.3097L190.426 21.3055L189.912 20.448ZM199.512 17.856H200.512V16.856H199.512V17.856ZM199.512 35.232V36.232H200.512V35.232H199.512ZM185.784 37.92L186.428 38.6842L186.435 38.6785L186.442 38.6725L185.784 37.92ZM182.712 71.9999V72.9999H183.712V71.9999H182.712ZM166.296 71.9999H165.296V72.9999H166.296V71.9999ZM166.296 18.432V17.432H165.296V18.432H166.296ZM182.712 18.432H183.712V17.432H182.712V18.432ZM183.549 27.9062C185.388 25.0861 187.676 22.8948 190.412 21.3138L189.411 19.5821C186.388 21.3291 183.875 23.7458 181.874 26.8137L183.549 27.9062ZM190.426 21.3055C193.143 19.6753 196.164 18.856 199.512 18.856V16.856C195.819 16.856 192.44 17.7647 189.397 19.5905L190.426 21.3055ZM198.512 17.856V35.232H200.512V17.856H198.512ZM199.512 34.232H195V36.232H199.512V34.232ZM195 34.232C190.78 34.232 187.428 35.1521 185.125 37.1674L186.442 38.6725C188.235 37.1038 191.027 36.232 195 36.232V34.232ZM185.139 37.1557C182.754 39.1677 181.712 42.6117 181.712 47.136H183.712C183.712 42.8282 184.717 40.1282 186.428 38.6842L185.139 37.1557ZM181.712 47.136V71.9999H183.712V47.136H181.712ZM182.712 70.9999H166.296V72.9999H182.712V70.9999ZM167.296 71.9999V18.432H165.296V71.9999H167.296ZM166.296 19.432H182.712V17.432H166.296V19.432ZM181.712 18.432V27.36H183.712V18.432H181.712ZM240.094 71.9999L239.285 72.5877L239.584 72.9999H240.094V71.9999ZM223.774 49.5359L224.583 48.9482L222.774 46.4581V49.5359H223.774ZM223.774 71.9999V72.9999H224.774V71.9999H223.774ZM207.358 71.9999H206.358V72.9999H207.358V71.9999ZM207.358 0.959978V-0.0400212H206.358V0.959978H207.358ZM223.774 0.959978H224.774V-0.0400212H223.774V0.959978ZM223.774 40.224H222.774V43.2417L224.576 40.8211L223.774 40.224ZM239.998 18.432V17.432H239.496L239.196 17.8348L239.998 18.432ZM260.254 18.432L261.024 19.07L262.381 17.432H260.254V18.432ZM237.982 45.312L237.212 44.6739L236.679 45.317L237.217 45.9559L237.982 45.312ZM260.446 71.9999V72.9999H262.595L261.211 71.356L260.446 71.9999ZM240.903 71.4122L224.583 48.9482L222.965 50.1237L239.285 72.5877L240.903 71.4122ZM222.774 49.5359V71.9999H224.774V49.5359H222.774ZM223.774 70.9999H207.358V72.9999H223.774V70.9999ZM208.358 71.9999V0.959978H206.358V71.9999H208.358ZM207.358 1.95998H223.774V-0.0400212H207.358V1.95998ZM222.774 0.959978V40.224H224.774V0.959978H222.774ZM224.576 40.8211L240.8 19.0291L239.196 17.8348L222.972 39.6268L224.576 40.8211ZM239.998 19.432H260.254V17.432H239.998V19.432ZM259.484 17.7939L237.212 44.6739L238.752 45.95L261.024 19.07L259.484 17.7939ZM237.217 45.9559L259.681 72.6439L261.211 71.356L238.747 44.668L237.217 45.9559ZM260.446 70.9999H240.094V72.9999H260.446V70.9999Z" fill="white"/>
</svg>
